<svg xmlns="http://www.w3.org/2000/svg" viewBox="0 0 874.1681 874.1681"><title>Monochromes</title><g id="Layer_2" data-name="Layer 2"><path d="M200.8325,468.2429l-46.4688,7.0349v-124.93C97.691,348.7586,59.8513,323.6817,44.7744,266.433c26.6124,13.9656,51.5245,10.8991,76.4343-.19q68.1669-30.3454,136.5184-60.275c4.6-2.0143,6.485-4.4011,6.3555-9.576-.3651-14.5842-.1275-29.1834-.1275-44.464-39.7036-.9913-67.1585-17.8492-79.4638-58.5125,23.3948,12.0891,43.4326,4.2166,63.5415-4.9511q40.9721-18.68,82.3492-36.46c5.2976-2.2715,11.5181-2.3908,18.0367-3.6419V32.7164h19.0365c.2736-5.615.5027-10.3149.7573-15.5394h40.2368c.2467,4.753.48,9.25.7483,14.4166h56.6585c.2371-4.4395.4885-9.1458.7685-14.3863h40.24c.22,4.6569.4324,9.1557.69,14.6054H526.12V48.5594c25.0363,1.8065,44.4564,16.1071,66.0659,24.511,15.4376,6.0038,30.4773,13.0567,45.568,19.92,16.913,7.6917,33.9007,9.7413,52.3328.7712-4.3913,18.93-13.8082,33.0394-28.3713,43.5876-14.6194,10.5889-31.5656,14.1759-50.3972,14.3824,0,16.6-.1526,32.6121.2246,48.6118.04,1.6918,2.9036,3.96,4.9437,4.8673,48.3285,21.4831,96.5765,43.1591,145.1726,64.0232,22.31,9.5785,45.0923,9.6325,67.2014-2.062-3.0007,45.3607-46.0234,78.87-107.4529,83.0159V494.5028c-14.9584,4.3895-28.5509,8.6395-42.3214,12.2022-2.8141.728-6.2948-1.6951-9.47-1.7q-74.5928-.1246-149.1858.0526a12.4264,12.4264,0,0,0-2.5279.82v53.0624c-8.4618-2.8985-15.3695-4.6717-21.7486-7.5973-8.3-3.8066-19.4437-6.6359-23.3509-13.3728-4.1552-7.1645-1.4306-18.4044-1.452-27.8654-.0712-31.62-.027-63.2412-.0271-94.8619v-9.8384H376.3933v91.152l-46.7547-14.7278V405.356H200.8325ZM674.3752,350.5641H200.8023V375.94H674.3752ZM518.1684,473.4811H673.9646v-68.1H518.1684Zm-120.809-270.89h80.1753V151.8491H397.3594Zm167.1415.2091V151.8687H507.43V202.8Zm-196.7829-.1348V152.1243H310.591v50.5413Z"/><path d="M819.6557,632.6169c-10.3764,16.9605-19.2283,32.8656-29.457,47.83-17.67,25.8506-36.1224,51.1742-62.5182,69.2389-39.4818,27.02-83.3962,34.6692-130.2074,30.1429-62.49-6.0423-119.1456-30.65-175.9845-54.8171-39.4284-16.7642-78.8458-33.4405-121.4794-40.9936-56.5039-10.01-108.0469,1.0856-154.8666,34.2025-5.3674,3.7965-10.6076,7.7729-16.7127,12.2578a106.4684,106.4684,0,0,1-1.3194-48.6092c13.6622-65.51,58.3126-102.6477,118.7112-121.0543,61.8327-18.8436,123.1762-10.509,183.4265,11.8823,46.9419,17.4453,89.7166,42.9492,134.2182,65.1306,36.2021,18.0446,73.4824,32.883,113.5987,39.9393,48.0188,8.4463,90.03-4.558,127.556-34.4868,4.0377-3.22,7.907-6.6515,11.867-9.97A21.2188,21.2188,0,0,1,819.6557,632.6169Z"/><path d="M708.4628,769.3345C556.9423,902.1378,294.79,908.3905,130.1806,736.084c13.2539-8.7709,25.7616-18.13,39.2419-25.7732,46.8234-26.5493,96.5416-29.4625,147.9368-16.6573,43.18,10.7584,83.5,29.1653,124.2179,46.4712,41.0582,17.4509,82.5765,33.494,126.6122,41.7774,46.1878,8.6882,91.6991,8.1471,135.504-11.6175a22.8737,22.8737,0,0,1,3.1658-1.2726C707.3283,768.88,707.9259,769.206,708.4628,769.3345Z"/><path d="M782.9038,650.6721a136.9516,136.9516,0,0,1-54.4533,21.5953c-39.7319,6.8336-77.1918-3.4046-112.8694-18.4342-37.3574-15.7372-73.3925-34.7225-109.5351-53.2079-48.3315-24.72-97.7521-46.8715-152.0433-53.4479-54.6655-6.6216-108.4311-2.32-156.5485,28.434-34.6645,22.156-62.1927,50.5217-73.4649,91.7435-4.6939,17.1654-6.2078,38.6319-2.92,59.3827C72.0038,671.82,39.9791,610.4127,22.7287,540.5657a405.3326,405.3326,0,0,1,86.6275-44.9741,327.6076,327.6076,0,0,1,134.73-21.327c54.5665,2.8775,107.0753,16.3337,156.4694,38.8,53.565,24.3638,105.4353,52.45,158.0823,78.8372,28.122,14.0952,55.7717,29.3122,84.6167,41.7441C687.814,652.8509,733.6565,666.4154,782.9038,650.6721Z"/><path d="M519.5292,564.0388c44.618-5.5854,85.0682-22.0867,125.9835-37.4935,25.82-9.7223,52.1843-18.7247,79.0394-24.8035,43.3417-9.8107,81.999,3.6347,116.8359,29.7057,11.245,8.4154,11.4054,8.5277,7.5148,22.0405-3.3944,11.79-7.5977,23.3481-10.9389,35.1516-8.0462,28.4248-29.6369,43.2368-54.6855,54.1524-30.8424,13.44-62.2372,9.4348-93.418,1.0155-42.57-11.4944-80.9173-32.7257-119.7623-52.7293C553.1063,582.3281,536.3774,573.0676,519.5292,564.0388Z"/></g></svg>