<svg id="Layer_1" data-name="Layer 1" xmlns="http://www.w3.org/2000/svg" viewBox="0 0 100 100"><defs><style>.cls-1{fill:#eab540;}.cls-2{fill:#ed1c24;}.cls-3{fill:#d94245;}.cls-4{fill:#edeaec;}.cls-5{fill:#fff;}</style></defs><title>icone</title><path class="cls-1" d="M48.4382,1.1244A5.7752,5.7752,0,0,1,51.2447,3.85Q69.119,34.8766,87.0464,65.8729a4.1989,4.1989,0,0,1,.6348,3.4644,3.5034,3.5034,0,0,1-3,2.6192A3.5527,3.5527,0,0,1,80.87,70.1242c-1.5224-2.5894-3.0128-5.1976-4.5149-7.7989Q60.415,34.72,44.4766,7.1144c-1.021-1.7685-.97-3.5414.244-4.7815a10.3473,10.3473,0,0,1,1.7977-1.2085Z"/><path class="cls-2" d="M40.1826,99.4231c-1.7806-2.6478-3.5523-5.3016-5.3437-7.942-2.7809-4.0989-5.5752-8.1886-8.43-12.38,2.655-1.5364,5.2688-3.049,7.9669-4.61.4261.85.829,1.6417,1.2219,2.4385,1.6944,3.4367,3.2953,6.9239,5.117,10.2917a24.735,24.735,0,0,0,3.373,4.6271,13.2356,13.2356,0,0,0,2.765,1.8068c.5464.3569,1.0643.7574,1.7327,1.2371l-7.6344,4.5309Z"/><path class="cls-3" d="M44.3368,12.5727,76.1131,67.6084c-13.2745-5.7184-25.9812-3.9164-38.5375,1.81l-14.08-24.3858C34.7164,37.0494,42.604,26.9558,44.3368,12.5727Zm-13.2321,34.79a9.8543,9.8543,0,0,0,1.2039-.666c.8115-.6221,1.6089-1.2651,2.3814-1.9351A38.4143,38.4143,0,0,0,46.7939,26.8039c.3183-1.043.0274-1.7906-.7775-2.07-.8625-.2991-1.6056.1278-1.9328,1.1965-2.3044,7.5256-6.97,13.3487-13.0491,18.1592-.3252.2572-.7742.478-.9146.819a2.2379,2.2379,0,0,0-.1243,1.5013C30.1445,46.8005,30.7,47.0356,31.1047,47.3622Z"/><path class="cls-1" d="M21.0549,46.5186,35.072,70.7976l-11.2827,6.51L9.7752,53.0335Z"/><path class="cls-3" d="M7.3556,54.5469,21.2305,78.5822A13.9042,13.9042,0,0,1,7.3556,54.5469Z"/><path class="cls-4" d="M99.18,31.0711c-.0021,6.1294-1.1151,10.4793-3.4251,14.497a2.223,2.223,0,0,1-1.3414,1.02c-1.0827.176-1.6209-.9543-1.12-2.0808a47.5912,47.5912,0,0,0,2.196-5.1883A23.6091,23.6091,0,0,0,76.3133,9.1816c-1.0737-.1511-2.1622-.2013-3.2449-.2843-1.16-.089-1.7174-.5316-1.7075-1.3817.01-.8782.6379-1.3382,1.8571-1.313a25.4964,25.4964,0,0,1,13.1088,3.752C94.7107,15.1386,98.87,22.77,99.18,31.0711Z"/><path class="cls-4" d="M72.8239,13.1158A19.4,19.4,0,0,1,91.9371,29.24a18.8245,18.8245,0,0,1-3.1655,14.4159c-.6032.8846-1.3139,1.1011-2.0116.6433-.711-.4664-.774-1.2551-.1863-2.1779,3.8887-6.1067,4.1944-12.393.3054-18.5068-3.7765-5.9368-9.4478-8.353-16.448-7.5781-1.13.1251-1.86-.27-1.964-1.1494-.0936-.7935.4405-1.36,1.4974-1.4991C70.9132,13.263,71.87,13.2038,72.8239,13.1158Z"/><path class="cls-4" d="M84.3552,34.6341A12.5912,12.5912,0,0,1,81.18,41.951c-.7475.8853-1.5428,1.0373-2.23.4484-.6981-.5984-.6827-1.3729.0455-2.273a10.3465,10.3465,0,0,0-6.238-17.0028,15.2043,15.2043,0,0,0-3.5243.0609c-.7795.0542-1.4943.07-1.9-.7346-.47-.9317.0889-1.8634,1.2709-2.0815a12.9825,12.9825,0,0,1,9.8119,1.9382C82.1679,24.7708,84.3648,28.9277,84.3552,34.6341Z"/><path class="cls-4" d="M36.9038,73.0628l.7083-.419,6.2448,5.7079c-1.0186.2811-2.1372.6192-3.274.8763a.8661.8661,0,0,1-.7132-.3831C38.8718,76.9624,37.9183,75.0563,36.9038,73.0628Z"/><path class="cls-5" d="M31.1047,47.3622c-.4048-.3266-.96-.5617-1.1091-.952a2.2379,2.2379,0,0,1,.1243-1.5013c.14-.341.5894-.5618.9146-.819,6.0793-4.81,10.7447-10.6336,13.0491-18.1592.3272-1.0687,1.07-1.4956,1.9328-1.1965.8049.2791,1.0958,1.0267.7775,2.07A38.4143,38.4143,0,0,1,34.69,44.7611c-.7725.67-1.57,1.313-2.3814,1.9351A9.8543,9.8543,0,0,1,31.1047,47.3622Z"/></svg>