<svg id="Layer_1" data-name="Layer 1" xmlns="http://www.w3.org/2000/svg" viewBox="0 0 100 100"><defs><style>.cls-1{fill:#edeaec;}.cls-1,.cls-2{stroke:#231f20;stroke-miterlimit:10;stroke-width:2.8346px;}.cls-2,.cls-8{fill:#ffd166;}.cls-3{fill:#5f5462;}.cls-4{fill:#5f5461;}.cls-5{fill:#fec353;}.cls-6{fill:#9c969e;}.cls-7{fill:#877f89;}</style></defs><title>iconeSECONDSVG</title><path class="cls-1" d="M48.96,77.0462q-7.837.0135-15.674.0258c-7.3085.0045-14.6175-.0457-21.9251.0323a3.2739,3.2739,0,0,1-3.2571-3.187c-.0141-.2556-.0023-.5127-.0023-.7692q0-34.0422-.024-68.0844C8.0743,3.0547,8.6234,1.5742,10.6034.85H66.23c1.9781.8687,2.34,2.49,2.3346,4.4765q-.0669,23.6591-.0216,47.3185c0,.4606-.1522.9813.3818,1.29a.7.7,0,0,1-.5766.2939,3.1963,3.1963,0,0,0-2.6506,2.3416c-1.3394,3.3939-2.7335,6.7663-4.0423,10.1718a2.0991,2.0991,0,0,1-2.048,1.6082c-2.3884.17-4.786.2328-7.1666.51a33.6308,33.6308,0,0,0-4.3941.2288,2.9313,2.9313,0,0,0-2.7462,2.0528,2.7774,2.7774,0,0,0,.9337,3.1876c.6381.581,1.3194,1.11,1.9754,1.67C48.543,76.2839,48.9545,76.5225,48.96,77.0462Z"/><path class="cls-2" d="M52.3678,68.6258c2.58-.1974,5.1591-.42,7.742-.5734a1.0046,1.0046,0,0,0,1.026-.7639c1.43-3.6273,2.9159-7.2326,4.3335-10.8645a3.3844,3.3844,0,0,1,3.4556-2.4885A3.29,3.29,0,0,1,71.6766,56.17c1.4624,3.686,2.9666,7.3555,4.4218,11.0444a1.1286,1.1286,0,0,0,1.172.8414c3.9277.22,7.8523.497,11.7765.7759a3.2461,3.2461,0,0,1,1.8468,5.9541c-3.0236,2.5218-6.0391,5.0533-9.0762,7.5586a.9936.9936,0,0,0-.4056,1.2046c.5554,2.0659,1.0369,4.1517,1.5462,6.23a1.8278,1.8278,0,0,1-1.4743.2119A35.09,35.09,0,0,1,61.605,81.6825a34.6519,34.6519,0,0,1-8.9993-11.7111C52.41,69.5575,52.08,69.1379,52.3678,68.6258Z"/><path class="cls-2" d="M52.3678,68.6258A26.08,26.08,0,0,0,56.4547,75.84a34.6383,34.6383,0,0,0,12.97,10.6181,33.09,33.09,0,0,0,11.1546,3.1532c.7935.073,1.5822.1622,2.3793.1672a53.7732,53.7732,0,0,1,1.52,5.929A2.8978,2.8978,0,0,1,83.11,98.86a3.0487,3.0487,0,0,1-3.5219.0255q-5.1372-3.2052-10.2555-6.44a1.0739,1.0739,0,0,0-1.3594-.0135c-3.3463,2.1381-6.7252,4.225-10.0831,6.345a3.279,3.279,0,0,1-3.28.3483,3.1869,3.1869,0,0,1-1.7408-3.8476c.958-3.8423,1.9116-7.6859,2.9086-11.5181a1.2811,1.2811,0,0,0-.4957-1.5478c-2.1293-1.6943-4.2182-3.4393-6.3221-5.1654-.8936-.7739-1.7934-1.5409-2.68-2.3233-1.3562-1.1972-1.7316-2.4182-1.1943-3.8234a3.3841,3.3841,0,0,1,3.3544-2.0947A32.0015,32.0015,0,0,1,52.3678,68.6258Z"/><path class="cls-3" d="M44.6792,54.911H32.6643a3.136,3.136,0,0,1-1.2319-.14,1.4878,1.4878,0,0,1-1.02-1.4736,1.4269,1.4269,0,0,1,1.0349-1.4533,3.321,3.321,0,0,1,1.0375-.1344q12.2072-.0105,24.4142-.01c.8986-.0008,1.69.1778,1.9976,1.1356.3618,1.1255-.4534,2.06-1.8185,2.0691-3.0436.02-6.0875.0064-9.1312.0066Z"/><path class="cls-3" d="M44.6708,37.4141q-6.0547,0-12.11-.0014a2.83,2.83,0,0,1-1.1357-.1265A1.4812,1.4812,0,0,1,30.42,35.7118,1.4156,1.4156,0,0,1,31.637,34.31a5.7628,5.7628,0,0,1,1.1457-.086q11.9175-.0067,23.835-.0033c.1922,0,.385-.0075.5765.004,1.1495.0691,1.7685.6383,1.758,1.61-.01.9638-.662,1.5406-1.7872,1.5774-.2241.0074-.4485.0014-.6728.0014Z"/><path class="cls-4" d="M44.6664,19.9106q-6.1982,0-12.3963-.0024c-1.1982-.0018-1.8829-.5875-1.8525-1.5876a1.4485,1.4485,0,0,1,1.314-1.5155,3.9561,3.9561,0,0,1,.6711-.0257q12.3-.0016,24.6.0007c1.1479,0,1.7549.3878,1.9213,1.1929.2292,1.1087-.5025,1.9312-1.7657,1.934C52.9946,19.9165,48.8305,19.9106,44.6664,19.9106Z"/><path class="cls-5" d="M26.3958,56.4936A3.9554,3.9554,0,1,1,22.4534,52.48,4.0172,4.0172,0,0,1,26.3958,56.4936Z"/><path class="cls-5" d="M22.4474,35.0589a3.8729,3.8729,0,0,1,3.9484,3.9454,3.9554,3.9554,0,1,1-7.9106-.0143A3.873,3.873,0,0,1,22.4474,35.0589Z"/><path class="cls-5" d="M22.4372,17.57a3.8815,3.8815,0,0,1,3.9591,3.9381,3.9557,3.9557,0,1,1-7.9114.0065A3.8838,3.8838,0,0,1,22.4372,17.57Z"/><path class="cls-6" d="M45.5208,61.2729c-1.2183,0-2.4368.0139-3.6548-.0042-1.1982-.0178-1.993-.7061-1.9586-1.6563.0334-.9242.7891-1.5595,1.9515-1.5684q3.5585-.0271,7.1173-.0017c1.2751.0072,2.0812.6817,2.0473,1.6633-.0326.9448-.8277,1.56-2.04,1.5662C47.8292,61.2776,46.675,61.273,45.5208,61.2729Z"/><path class="cls-6" d="M45.54,26.2643c-1.2815,0-2.5633.0137-3.8446-.0044a1.6825,1.6825,0,0,1-1.79-1.616,1.5806,1.5806,0,0,1,1.774-1.4881q3.7965-.0177,7.5931,0c1.117.006,1.777.6273,1.752,1.5887a1.546,1.546,0,0,1-1.7363,1.516C48.0387,26.2769,46.789,26.2644,45.54,26.2643Z"/><path class="cls-6" d="M45.5153,40.6564c1.2807,0,2.5615-.0116,3.842.0036a1.5171,1.5171,0,0,1,1.6667,1.4635,1.5752,1.5752,0,0,1-1.6433,1.6346q-3.9373.05-7.8758-.0022a1.6408,1.6408,0,0,1-1.6014-1.6075,1.5563,1.5563,0,0,1,1.6738-1.4871C42.89,40.6417,44.2026,40.6564,45.5153,40.6564Z"/><path class="cls-7" d="M33.4963,61.2605c-.5129,0-1.0291.0367-1.5381-.0079a1.591,1.591,0,0,1-.0161-3.18,27.6,27.6,0,0,1,3.1718-.0034,1.6346,1.6346,0,0,1,1.63,1.5812,1.6755,1.6755,0,0,1-1.709,1.6094c-.5108.0331-1.0255.0058-1.5385.0058Z"/><path class="cls-7" d="M33.5516,40.6436c.544.0014,1.0892-.0217,1.6317.0066a1.5282,1.5282,0,0,1,1.5628,1.4976,1.5929,1.5929,0,0,1-1.4,1.5837,27.2893,27.2893,0,0,1-3.5477-.0018,1.4682,1.4682,0,0,1-1.3806-1.6543,1.4843,1.4843,0,0,1,1.5982-1.43C32.527,40.6265,33.04,40.6422,33.5516,40.6436Z"/><path class="cls-7" d="M33.5035,26.2635c-.5119,0-1.0249.0228-1.5353-.0049a1.5192,1.5192,0,0,1-1.5522-1.594,1.487,1.487,0,0,1,1.5228-1.51c1.0866-.0314,2.1758-.0333,3.2623.0024a1.5373,1.5373,0,0,1,1.5442,1.5178,1.6371,1.6371,0,0,1-1.515,1.5777c-.5727.0425-1.151.0081-1.7268.0081Z"/><polygon class="cls-8" points="51.321 70.051 54.136 69.867 81.396 89.633 81.8 91.159 72.305 90.343 55.825 80.212 51.321 70.051"/><polyline class="cls-8" points="82.06 91.742 80.576 86.211 77.873 86.211 77.341 88.836 78.654 90.648 54.906 69.867 53.494 69.909 53.883 70.911"/></svg>