<svg id="Layer_1" data-name="Layer 1" xmlns="http://www.w3.org/2000/svg" viewBox="0 0 100 100"><defs><style>.cls-1{fill:#f7cb4a;stroke:#fff;stroke-miterlimit:10;stroke-width:2.8346px;}.cls-2{fill:#fee88c;}</style></defs><title>icone</title><path class="cls-1" d="M50.2871,4.5375c1.5819,0,3.1641-.0192,4.7456.0041a4.7037,4.7037,0,0,1,4.9309,5.0612c-.2521,6.6032-.5888,13.2031-.89,19.8044q-.2055,4.5012-.4074,9.0026-.5137,11.7516-1.0253,23.5033c-.1433,3.19-.2843,6.3807-.51,9.5651a4.6929,4.6929,0,0,1-4.5316,4.3045c-1.5484.0522-3.1016.0535-4.65-.0008a4.6955,4.6955,0,0,1-4.52-4.3174c-.2277-3.3112-.3736-6.6285-.5222-9.9446q-.62-13.8358-1.2153-27.6727-.4566-10.2818-.9354-20.5626c-.06-1.3264-.1626-2.6531-.1643-3.98A4.69,4.69,0,0,1,45.1622,4.56c1.7066-.0564,3.4165-.0107,5.1248-.0107Z"/><path class="cls-1" d="M50.208,98.4482a8.0884,8.0884,0,1,1,8.191-7.976A8.106,8.106,0,0,1,50.208,98.4482Z"/><path class="cls-2" d="M44.542,19.6291A4.7533,4.7533,0,0,1,44.7006,18.6a1.5794,1.5794,0,0,1,1.8687-1.0756,1.4938,1.4938,0,0,1,1.25,1.5531c.1483,3.0508.3017,6.1007.4,9.1544.1024,3.1743.3389,6.3444.5335,9.5154.0959,1.5618-.6057,2.49-1.8378,2.3534A1.4406,1.4406,0,0,1,45.5405,38.77a17.9073,17.9073,0,0,1-.1806-1.8757c-.083-2.1413-.0683-4.2894-.2342-6.4237-.1418-1.8249-.0389-3.6594-.25-5.472C44.6683,23.21,44.9864,21.4,44.542,19.6291Z"/><path class="cls-2" d="M44.2123,11.6246c-.01-1.77,1.0728-2.6785,2.3227-2.08,1.3746.6584.7915,1.9981,1.0168,3.0233A1.4508,1.4508,0,0,1,46.51,14.0905a1.5076,1.5076,0,0,1-2.0782-.9892A4.13,4.13,0,0,1,44.2123,11.6246Z"/></svg>