<svg id="Layer_1" data-name="Layer 1" xmlns="http://www.w3.org/2000/svg" viewBox="0 0 100 100"><defs><style>.cls-1{fill:#fed8b3;}.cls-1,.cls-2,.cls-3,.cls-4,.cls-5,.cls-6,.cls-7,.cls-8,.cls-9{stroke:#000;stroke-miterlimit:10;stroke-width:1.4173px;}.cls-2{fill:#5fbe7a;}.cls-3{fill:#e9bc8b;}.cls-4{fill:#eda521;}.cls-5{fill:#3c987b;}.cls-6{fill:#e47e25;}.cls-7{fill:#d3a06d;}.cls-8{fill:#fbb998;}.cls-9{fill:#343434;}</style></defs><title>iconeSECONDSVG</title><path class="cls-1" d="M81.1055,49.8168c.2737.8614,1.0295,1.36,1.5742,2.0041,1.1127,1.3148,2.3053,2.5688,3.5358,3.7756A5.7756,5.7756,0,0,1,85.9,64.4228a1.1955,1.1955,0,0,0-.2058.3273c-.3982.1057-.5137-.2394-.6751-.4576A22.2741,22.2741,0,0,0,68.695,55.09,22.0439,22.0439,0,0,0,52.891,60.26a21.1966,21.1966,0,0,0-3.2522,3.3591c-.2735.3615-.4894.8138-1.0332.86-.9744-.4443-1.8437-1.1688-3.0362-1.0116-.5127.0676-.9962.4014-1.5423.1951-.22-.337.0676-.5535.2-.7989a3.61,3.61,0,0,0-.5225-4.478A6.6181,6.6181,0,0,0,42.63,57.2184a4.1252,4.1252,0,0,1-.7375-.65,3.3019,3.3019,0,0,0-3.12-1.0566,1.9981,1.9981,0,0,1-.78.0389c-.3813-.1666-.3392-.4639-.1882-.7438,1.1593-2.15.504-3.8722-1.236-5.3484-.1007-.0854-.1921-.1819-.2853-.2757a5.2418,5.2418,0,0,0-2.1682-1.6585,3.2864,3.2864,0,0,0-1.9409-.0783,1.1451,1.1451,0,0,1-.9578.0265c-.1559-.3838.1447-.6117.3123-.8761A3.5282,3.5282,0,0,0,31.2,42.0714a12.8894,12.8894,0,0,0-1.0932-1.2695A6.6052,6.6052,0,0,0,28.846,39.689a3.6894,3.6894,0,0,0-4.7234.5328c-.9044.8241-1.7345,1.7268-2.61,2.5822a2.1556,2.1556,0,0,1-1.0237.7493.8243.8243,0,0,1-.6718-.3622c-1.3082-1.5837-2.8645-2.9263-4.2769-4.4087A2.2313,2.2313,0,0,1,14.717,37.47c.054-.4748.4182-.742.7191-1.0431q11.3532-11.362,22.7161-22.7143c.2742-.2739.5066-.6354.9669-.6373a15.7108,15.7108,0,0,1,5.7684,2.3479,5.6183,5.6183,0,0,0,.7274.3154c-.0146.4731-.4.6677-.7079.8993a9.6708,9.6708,0,0,0-4.1435,7.06c-.4722,4.9151-.9563,9.8279-1.0767,14.7668-.04,1.6269.4838,2.239,2.0756,2.677a1.95,1.95,0,0,0,.952-.2637,22.8069,22.8069,0,0,0,6.53-5.3158,3.8785,3.8785,0,0,0,.7622-1.5006,6.9534,6.9534,0,0,1,3.5846-4.4484,22.3085,22.3085,0,0,1,5.1312-2.1646,1.2851,1.2851,0,0,1,1.4363.3693c1.9928,2.0452,3.9462,4.1275,5.8848,6.2238.1575.17.2959.36.4642.52,2.6688,2.5476,5.1268,5.301,7.6933,7.9477q2.9823,3.0754,5.9811,6.1361A6.1938,6.1938,0,0,1,81.1055,49.8168Z"/><path class="cls-2" d="M68.7369,54.8655A22.2837,22.2837,0,0,1,85.152,64.0471c.1771.2375.3617.4695.5426.7035a24.1058,24.1058,0,0,1,3.4669,9.1427A22.3288,22.3288,0,0,1,74.1043,98.3217a18.4214,18.4214,0,0,1-5.1552,1.0169,17.9683,17.9683,0,0,1-8.9806-3.1713,22.1743,22.1743,0,0,1-10.25-16.1322A22.511,22.511,0,0,1,61.051,57.4588,21.8184,21.8184,0,0,1,68.7369,54.8655Z"/><path class="cls-3" d="M81.1055,49.8168c-.615-.0346-.718-.6415-1.05-.9772q-4.6977-4.744-9.3421-9.5406c-2.7445-2.8391-5.4849-5.6834-8.161-8.5864q-1.3155-1.4271-2.6638-2.82c-.2008-.2066-.3713-.4464-.7565-.32-2.7182.89-5.4331,1.7654-7.5034,3.912a3.7314,3.7314,0,0,0-1.1033,1.747c-.5069,2.5241-2.3032,4.0563-4.1769,5.4851a14.542,14.542,0,0,1-4.3746,2.6965,2.41,2.41,0,0,1-.9654-2.1943A64.633,64.633,0,0,1,43.43,24.2019c1.1064-3.5332,3.8929-5.6147,7.1482-7.0828a30.7629,30.7629,0,0,1,11.8082-2.5369c.4967-.0447.791.2952,1.0943.5983Q75.5531,27.2421,87.61,39.3193c.2736.2741.7559.5087.4806,1.0562q-2.4937,3.3532-4.9864,6.7073C82.4319,47.99,81.7714,48.9052,81.1055,49.8168Z"/><path class="cls-4" d="M60.3385,6.0824C61.8848,4.53,63.4051,2.95,64.9859,1.4333A2.7746,2.7746,0,0,1,68.9387,1.42c.1737.1542.3326.3252.4971.49Q83.3948,15.868,97.3534,29.8272c1.8085,1.8087,1.8081,3.1936-.0177,5.0259-1.3348,1.34-2.6871,2.6615-4.0316,3.9912a3.1259,3.1259,0,0,1-3.4992-.6711c-.6052-.57-1.1809-1.17-1.7686-1.7576Q74.7409,23.1213,61.4371,9.8352A3.3668,3.3668,0,0,1,60.3385,6.0824Z"/><path class="cls-4" d="M5.8175,39.4536c-1.51-1.4972-3.0441-2.9718-4.5232-4.4992a2.6283,2.6283,0,0,1-.0119-3.8437c.8424-.8969,1.7319-1.75,2.6023-2.62Q16.3061,16.0677,28.7285,3.6461c1.7491-1.7489,3.1026-1.752,4.8669.0047,1.4123,1.4063,2.808,2.8294,4.211,4.2451a3.026,3.026,0,0,1-.8114,3.4523Q23.2483,25.0949,9.4964,38.8367A2.7639,2.7639,0,0,1,5.8175,39.4536Z"/><path class="cls-5" d="M68.7369,54.8655c-.9254.6368-2.0583.587-3.0819.9051A22.1187,22.1187,0,0,0,52.8987,65.7734a21.4731,21.4731,0,0,0-3.1138,11.8433A22.3193,22.3193,0,0,0,68.71,99.1724c.0861.0135.1594.109.2387.1662l-.0822.0315-.0873-.0122a15.221,15.221,0,0,1-3.262.01c-9.32-.3444-17.984-7.6334-20.1235-16.9243a25.062,25.062,0,0,1-.6334-4.2219,10.6083,10.6083,0,0,1,.0733-5.1088,22.38,22.38,0,0,1,3.1077-8.0148,1.4768,1.4768,0,0,1,.67-.6525A27.3272,27.3272,0,0,1,53.6853,59.27,22.2179,22.2179,0,0,1,68.7369,54.8655Z"/><path class="cls-3" d="M30.2184,40.6417c1.2423,1.1666,2.4,2.3407,2.2213,4.2865a5.2733,5.2733,0,0,1-1.23,2.5328c.0748.283-.1355.4169-.3.5768Q24.2,54.5787,17.6593,61.29c-.1611.1653-.2959.3695-.5748.3184-.2373-.2441-.4282.0041-.62.075a3.6883,3.6883,0,0,1-4.18-.9252c-.3509-.3494-.6964-.7043-1.0443-1.0567a3.8619,3.8619,0,0,1,.8731-4.7989Q18.7667,48.2407,25.43,41.5887A3.8589,3.8589,0,0,1,30.2184,40.6417Z"/><path class="cls-3" d="M36.4445,49.0253c1.3134,1.0833,2.39,2.2668,2.1825,4.1738a3.7527,3.7527,0,0,1-.5761,1.6548c-.1212.1915-.3379.3608-.0418.5762-.2287.72-.9627.94-1.4352,1.42-3.6531,3.7075-7.3429,7.3789-11.031,11.0518-.3635.362-.6608.8583-1.2809.8462-2.5115,1.1465-4.3.0323-5.836-1.8677a3.993,3.993,0,0,1,.8185-4.7413c4.11-4.1026,8.2023-8.222,12.3257-12.3107A3.769,3.769,0,0,1,36.4445,49.0253Z"/><path class="cls-3" d="M42.7854,57.02c1.1726,1.1652,2.4134,2.2626,2.231,4.1883a4.42,4.42,0,0,1-1.0277,2.4139c.0853.2826-.1249.4176-.2879.5764-3.84,3.7428-7.66,7.5047-11.3573,11.3894a.973.973,0,0,1-.7527.4146c-.5389.1308-1.0715.3035-1.6177.3848-1.8814.28-3.071-.8312-4.1595-2.1242a3.5858,3.5858,0,0,1,.6647-4.77Q32.2608,63.67,38.0816,57.8841A3.8907,3.8907,0,0,1,42.7854,57.02Z"/><path class="cls-6" d="M5.8175,39.4536a3.5208,3.5208,0,0,0,3.8484-1.082q12.789-12.8828,25.6613-25.6828c1.35-1.3461,2.8808-2.5586,2.4793-4.7929A5.2165,5.2165,0,0,1,39.772,10.4a3.0833,3.0833,0,0,1-.6526,2.6748Q29.8683,22.3007,20.62,31.5285C18.67,33.4773,16.743,35.45,14.8055,37.412A10.763,10.763,0,0,1,11.4367,40.77c-2.0008,1.4454-3.0023,1.3679-4.7414-.3766C6.3928,40.09,6.11,39.7674,5.8175,39.4536Z"/><path class="cls-6" d="M60.3385,6.0824c.0253.0216.0758.0493.0723.0639-.4853,2.013.8267,3.1487,2.0592,4.3771Q75.7174,23.7276,88.906,36.9906c1.2724,1.2853,2.5389,2.1625,4.398,1.8537-.3879.4093-.76.8352-1.1667,1.2247-1.2691,1.215-2.462,1.2989-4.0464.3069-.0075-.3488-.2985-.5032-.5021-.707Q75.1973,27.2651,62.7977,14.87a2.239,2.239,0,0,0-.2335-.18,11.7881,11.7881,0,0,1-2.7977-2.6873c-1.74-1.6865-2.0422-2.9723-.95-4.3711A18.159,18.159,0,0,1,60.3385,6.0824Z"/><path class="cls-3" d="M48.2581,65.0084a25.7857,25.7857,0,0,0-3.1695,8.1761,32.9439,32.9439,0,0,0-.3281,5.0371c-.3889-.4379-.6767-.28-1.0368.0928-1.2433,1.2873-2.5731,2.494-3.7764,3.8165-1.7856,1.9623-4.3708,2.2451-6.28.0227-.15-.1745-.3112-.3393-.4672-.5087a3.8142,3.8142,0,0,1,.7393-5.0376c1.4021-1.4631,2.8589-2.8734,4.2915-4.307q3.1-3.1021,6.2047-6.2a3.9539,3.9539,0,0,1,2.8973-1.3459C47.6592,64.76,48.0073,64.7159,48.2581,65.0084Z"/><path class="cls-7" d="M59.7665,12.002a15.8273,15.8273,0,0,1,2.7977,2.6872c-1.0658.4212-2.2038.1956-3.3067.3707-4.2824.68-8.44,1.6134-11.9774,4.3521a10.8194,10.8194,0,0,0-4.0716,6.39,81.2931,81.2931,0,0,0-1.5625,9.16,20.8777,20.8777,0,0,0-.2782,5.0068c.075.5606.5543.9029.6059,1.4436a2.4485,2.4485,0,0,1-2.5893-2.6174c.0676-3.9011.4384-7.7823.78-11.6661.1391-1.5794.3092-3.15.5413-4.7187.3644-2.4633,1.8546-4.1817,3.6555-5.7092.4014-.34.8347-.6432,1.2533-.9632a28.7724,28.7724,0,0,1,13.3618-3.6549C59.2406,12.07,59.5032,12.03,59.7665,12.002Z"/><path class="cls-7" d="M30.2184,40.6417c-.5708.193-1.0462-.2482-1.6178-.2206a3.9449,3.9449,0,0,0-2.7727,1.1068q-6.9285,6.9442-13.8727,13.8728a3.8423,3.8423,0,0,0-.8354,3.5214c.0333.26.08.519.12.7789-1.4145-1.1735-2.3385-2.54-1.7794-4.4964a4.2233,4.2233,0,0,1,1.16-1.8262q2.9631-2.9562,5.9173-5.9214c.2544-.2555.4734-.5462.7087-.8206A11.797,11.797,0,0,1,20.45,43.46c1.0661-1.04,2.14-2.0727,3.1969-3.1214C25.8509,38.1524,28.1809,38.2562,30.2184,40.6417Z"/><path class="cls-7" d="M36.4445,49.0253c-1.4035-.3653-2.7924-.56-4.0546.416a8.6752,8.6752,0,0,0-.8141.7278c-3.7138,3.7085-7.3618,7.486-11.1637,11.1016-1.6909,1.6079-2.63,3.274-1.9862,5.6092-1.9843-1.77-2.3484-3.2-1.3416-5.2715,4.3226-4.641,8.9334-8.9965,13.374-13.5205.2316-.2359.6126-.2862.752-.6272A4.091,4.091,0,0,1,36.4445,49.0253Z"/><path class="cls-7" d="M48.2581,65.0084a4.4424,4.4424,0,0,0-3.9734,1.5722c-3.1295,3.2079-6.2825,6.3956-9.5113,9.5029-1.66,1.5979-2.5143,3.2909-1.573,5.561a7.2858,7.2858,0,0,1-1.5619-1.6274,3.7785,3.7785,0,0,1-.0477-4.0147q4.6264-4.6732,9.2561-9.3433c1.0277-1.0321,2.0935-2.0261,3.1418-3.0373,1.7067-.6554,3.2988-.6683,4.6228.8241A.8042.8042,0,0,1,48.2581,65.0084Z"/><path class="cls-7" d="M42.7854,57.02c-.2468.319-.4976.0416-.714-.0271a3.4324,3.4324,0,0,0-3.6581.9179q-5.9528,5.8951-11.85,11.8455a3.49,3.49,0,0,0-.9162,3.8358c.0752.2166.1122.4465.1669.6707a4.2186,4.2186,0,0,1-1.5518-5.5144c.3208-.2844.657-.5531.96-.8553q5.38-5.3712,10.7494-10.7539A9.9534,9.9534,0,0,1,38.009,55.43C40.0121,54.7254,41.4923,55.5915,42.7854,57.02Z"/><path class="cls-8" d="M20.45,43.46a34.1383,34.1383,0,0,1-3.2038,3.1768q-2.3645-2.4177-4.7308-4.8338c-.3486-.3548-.7189-.6883-1.079-1.0319q1.6848-1.68,3.3691-3.3587a8.2358,8.2358,0,0,0,1.867,2.1544C17.92,40.8751,19.19,42.163,20.45,43.46Z"/><path class="cls-2" d="M65.5175,99.3681q1.6309-.0051,3.2619-.01A7.2054,7.2054,0,0,1,65.5175,99.3681Z"/><path class="cls-9" d="M66.0188,87.7582a1.7491,1.7491,0,0,1-1.0644-.4862q-5.3706-4.2917-10.7439-8.58c-.1557-.1243-.3057-.2565-.4511-.3928a1.408,1.408,0,0,1-.3195-2.0181,1.3784,1.3784,0,0,1,1.9608-.2243c2.2928,1.4059,4.5944,2.7972,6.892,4.1954.9361.57,1.89,1.113,2.7976,1.7252a.7261.7261,0,0,0,1.1506-.15c2.6675-3.0066,5.3671-5.9845,8.0519-8.9757,1.3755-1.5324,2.7323-3.0816,4.1164-4.6061.699-.77,1.4772-.894,2.1008-.395.71.5682.7515,1.3068.0686,2.1851Q73.9747,78.53,67.3563,87.0121A1.6179,1.6179,0,0,1,66.0188,87.7582Z"/></svg>