<svg id="Layer_1" data-name="Layer 1" xmlns="http://www.w3.org/2000/svg" viewBox="0 0 100 100"><defs><style>.cls-1{fill:#fff;}.cls-2{stroke:#fff;stroke-miterlimit:10;stroke-width:0.8504px;}</style></defs><title>iconeSECONDSVG</title><rect class="cls-1" x="11.4113" y="38.1125" width="76.276" height="24.5075"/><path class="cls-2" d="M40.9275,25.1871c11.0464,0,22.093.0164,33.1394-.013a7.7541,7.7541,0,0,1,5.9719,2.5264c5.6294,5.9957,11.2836,11.9681,16.8952,17.98A7.3119,7.3119,0,0,1,96.56,56.5165q-10.1509,9.3966-20.378,18.7109a7.4942,7.4942,0,0,1-5.2585,2.0045c-21.0261-.0053-42.0523-.0335-63.0781.0544a6.475,6.475,0,0,1-6.6521-6.6448q.1494-19.4593.0021-38.92a6.4436,6.4436,0,0,1,6.5932-6.5964c11.0455.104,22.0926.0363,33.1391.0363ZM56.4621,51.4229c0,2.2359.0139,4.4719-.0068,6.7077-.0083.8985.3454,1.34,1.2814,1.32,1.5129-.0319,3.0289.0323,4.54-.0342,3.2037-.1411,5.0627-1.4527,6.0046-4.27a11.5267,11.5267,0,0,0,.0146-7.4957,5.504,5.504,0,0,0-5.3-4.1548c-1.7177-.0571-3.4374-.0676-5.1563-.0737-1.1739-.0042-1.368.1965-1.3745,1.3963C56.4525,47.02,56.461,49.2214,56.4621,51.4229Zm-10.6661.372c-.163-1.2406-.21-2.1046-.3975-2.937A6.9119,6.9119,0,0,0,38.9492,43.16a6.7312,6.7312,0,0,0-6.8324,4.9086,10.203,10.203,0,0,0,.229,7.2554,6.7433,6.7433,0,0,0,12.56.102A25.433,25.433,0,0,0,45.796,51.7949ZM21.1365,53.0017c-1.7988.1813-2.024.498-1.6311,2.1669.8875,3.7689,5.0728,5.6265,8.8639,3.9342a4.971,4.971,0,0,0,2.83-5.8657,4.5767,4.5767,0,0,0-3.2567-3.2813c-1.33-.4449-2.7065-.7562-4.0282-1.2234a.9134.9134,0,0,1-.2825-1.72A2.6581,2.6581,0,0,1,27.6545,48.37c.168.7354.5556,1.0693,1.31.9586.34-.05.68-.1117,1.0227-.1284.824-.04,1.0609-.5346.9742-1.2536a4.8247,4.8247,0,0,0-2.8849-4.1932,6.7351,6.7351,0,0,0-4.8271-.2617A4.6319,4.6319,0,0,0,19.84,47.9a4.4255,4.4255,0,0,0,3.0768,4.3113c.9269.3505,1.9022.5712,2.8485.8731a10.0138,10.0138,0,0,1,1.7289.6414,1.0926,1.0926,0,0,1,.1888,1.8251,3.38,3.38,0,0,1-3.1321.4884,2.1356,2.1356,0,0,1-1.8435-1.8355C22.57,53.1939,22.1234,52.6712,21.1365,53.0017ZM49.574,55.9489c0-3.7851.0016-7.3951-.0008-11.0051-.0009-1.3864-.14-1.52-1.5423-1.5263q-.3612-.0015-.7224.0026a.9517.9517,0,0,0-1.0741,1.0788q.0076,6.9146-.0007,13.8291a.9629.9629,0,0,0,1.0557,1.108q3.8184.0194,7.6369.003c.7-.0019,1.0957-.3328,1.0712-1.0767-.0113-.3436.0037-.688-.0005-1.032-.0145-1.2117-.1717-1.3749-1.3772-1.38C52.9771,55.9439,51.3343,55.9489,49.574,55.9489Zm29.6879-4.7717A4.0893,4.0893,0,1,0,83.3981,46.95,4.1617,4.1617,0,0,0,79.2619,51.1772Z"/><path class="cls-1" d="M79.2619,51.1772a4.0914,4.0914,0,1,1,4.0824,4.2853A4.1508,4.1508,0,0,1,79.2619,51.1772Z"/><path d="M59.9163,46.8987c.9958,0,1.919-.0366,2.838.0087a2.54,2.54,0,0,1,2.4086,2.0562,8.6983,8.6983,0,0,1-.12,5.1632,2.4541,2.4541,0,0,1-2.3739,1.7945c-.8859.0481-1.7766.0095-2.7524.0095Z"/><path d="M42.3882,51.2912c-.1129.7777-.1666,1.3589-.2854,1.9266a3.5612,3.5612,0,0,1-3.4741,3.07,3.4229,3.4229,0,0,1-3.4151-2.9939,13.4483,13.4483,0,0,1,.13-4.1663,3.1641,3.1641,0,0,1,3.0962-2.544,3.2462,3.2462,0,0,1,3.369,2.1923A18.5781,18.5781,0,0,1,42.3882,51.2912Z"/></svg>