<?xml version="1.0" encoding="utf-8"?>
<!-- Generator: Adobe Illustrator 23.0.4, SVG Export Plug-In . SVG Version: 6.00 Build 0)  -->
<svg version="1.1" id="Capa_1" xmlns="http://www.w3.org/2000/svg" xmlns:xlink="http://www.w3.org/1999/xlink" x="0px" y="0px"
	 viewBox="0 0 595.28 841.89" style="enable-background:new 0 0 595.28 841.89;" xml:space="preserve">
<style type="text/css">
	.st0{clip-path:url(#SVGID_2_);fill:url(#SVGID_3_);}
	.st1{clip-path:url(#SVGID_5_);fill:url(#SVGID_6_);}
	.st2{clip-path:url(#SVGID_8_);fill:url(#SVGID_9_);}
	.st3{clip-path:url(#SVGID_11_);fill:url(#SVGID_12_);}
	.st4{clip-path:url(#SVGID_14_);fill:url(#SVGID_15_);}
</style>
<g>
	<g>
		<defs>
			<path id="SVGID_1_" d="M155.7,596.29l-35.63,133.11h30.72l10.14-37.89c-2.19,25.26,11.5,37.89,41.06,37.89h30.72l18.43-30.72
				h-40.96c-13.65,0-18.64-6.82-14.95-20.48c8.6-20.48,29.66-47.75,63.18-81.82h-35.84c-28.06,28.74-46.56,52.84-55.5,72.29
				l19.35-72.39H155.7z M445.25,596.29l-27.44,102.4l-8.19,30.72h30.72l8.19-30.72l27.44-102.4H445.25z M317.88,627.01h51.2
				l-19.15,71.58l-51.3,0.1L317.88,627.01z M367.13,596.19l-30.82,0.1h-40.96l-35.64,133.11h30.72l51.2-0.1v0.1h30.72l35.74-133.22
				H367.13z"/>
		</defs>
		<clipPath id="SVGID_2_">
			<use xlink:href="#SVGID_1_"  style="overflow:visible;"/>
		</clipPath>
		
			<linearGradient id="SVGID_3_" gradientUnits="userSpaceOnUse" x1="-659.7939" y1="959.1749" x2="-657.9765" y2="959.1749" gradientTransform="matrix(195.8318 0 0 -195.8318 129328.6875 188499.75)">
			<stop  offset="0" style="stop-color:#9051F1"/>
			<stop  offset="4.461080e-03" style="stop-color:#9051F1"/>
			<stop  offset="1" style="stop-color:#4149C1"/>
		</linearGradient>
		<rect x="120.07" y="596.19" class="st0" width="355.9" height="133.22"/>
	</g>
	<g>
		<defs>
			<path id="SVGID_4_" d="M98.77,296.09c0-111.43,90.32-201.75,201.75-201.75c111.42,0,201.75,90.33,201.75,201.75
				c0,111.42-90.33,201.75-201.75,201.75C189.09,497.84,98.77,407.51,98.77,296.09 M73.6,296.09
				c0,125.32,101.6,226.92,226.92,226.92s226.92-101.6,226.92-226.92c0-125.33-101.59-226.92-226.92-226.92S73.6,170.76,73.6,296.09
				"/>
		</defs>
		<clipPath id="SVGID_5_">
			<use xlink:href="#SVGID_4_"  style="overflow:visible;"/>
		</clipPath>
		
			<linearGradient id="SVGID_6_" gradientUnits="userSpaceOnUse" x1="-662.6795" y1="961.7708" x2="-660.8621" y2="961.7708" gradientTransform="matrix(-249.7255 0 0 249.7255 -164960.5156 -239882.5625)">
			<stop  offset="0" style="stop-color:#9051F1"/>
			<stop  offset="4.461080e-03" style="stop-color:#9051F1"/>
			<stop  offset="0.1994" style="stop-color:#8850EC"/>
			<stop  offset="0.4985" style="stop-color:#734EDF"/>
			<stop  offset="0.8626" style="stop-color:#504BCA"/>
			<stop  offset="1" style="stop-color:#4149C1"/>
		</linearGradient>
		<rect x="73.6" y="69.17" class="st1" width="453.84" height="453.84"/>
	</g>
	<g>
		<defs>
			<path id="SVGID_7_" d="M263.53,314.15v-36.11c0-10.46,8.48-18.93,18.93-18.93h36.11c10.46,0,18.93,8.48,18.93,18.93v36.11
				c0,10.45-8.47,18.93-18.93,18.93h-36.11C272.01,333.08,263.53,324.6,263.53,314.15 M90.69,296.09
				c0,115.88,93.94,209.83,209.83,209.83s209.83-93.94,209.83-209.83c0-115.89-93.94-209.83-209.83-209.83S90.69,180.2,90.69,296.09
				"/>
		</defs>
		<clipPath id="SVGID_8_">
			<use xlink:href="#SVGID_7_"  style="overflow:visible;"/>
		</clipPath>
		
			<linearGradient id="SVGID_9_" gradientUnits="userSpaceOnUse" x1="-661.0262" y1="959.4388" x2="-659.2089" y2="959.4388" gradientTransform="matrix(163.282 -163.282 -163.282 -163.282 264744.8438 49169.8359)">
			<stop  offset="0" style="stop-color:#9051F1"/>
			<stop  offset="4.461080e-03" style="stop-color:#9051F1"/>
			<stop  offset="0.1994" style="stop-color:#8850EC"/>
			<stop  offset="0.4985" style="stop-color:#734EDF"/>
			<stop  offset="0.8626" style="stop-color:#504BCA"/>
			<stop  offset="1" style="stop-color:#4149C1"/>
		</linearGradient>
		<polygon class="st2" points="-119.14,296.09 300.52,-123.57 720.17,296.09 300.52,715.74 		"/>
	</g>
	<g>
		<defs>
			<path id="SVGID_10_" d="M197.66,260.87c-0.43,0.41-0.81,0.86-1.13,1.35c-0.7,1.09-1.07,2.36-1.24,3.64
				c-0.19,1.43-0.1,2.79,0.39,4.15c0.58,1.61,1.53,3.11,1.83,4.81c0.22,1.24-0.65,1.62-1.56,2.19c-0.32,0.2-0.67,0.5-1,0.85
				c-0.2-0.13-0.4-0.25-0.59-0.38c-0.95-0.67-2.25-1.43-2.78-2.53c-0.53-1.11,0.54-2.56-0.74-3.39c-0.6-0.39-1.36-0.42-2.09-0.44
				c-4.23-0.09-8.46-0.23-12.68-0.23c-0.96,0-1.98,0.02-2.78,0.55c-1.31,0.88-0.57,2.6-0.95,3.89c-0.4,1.37-1.46,2.62-2.31,3.72
				c-0.97,1.25-2.08,2.39-3.16,3.55c-0.35-0.18-0.7-0.32-1-0.4c-1.04-0.27-1.98-0.37-2.15-1.62c-0.23-1.72,0.22-3.43,0.29-5.14
				c0.06-1.44-0.26-2.77-0.87-4.08c-0.55-1.17-1.28-2.26-2.28-3.09c-0.45-0.38-0.96-0.69-1.49-0.95c-0.22-0.11-0.99-0.41-0.77,0.15
				c0.11,0.3,0.44,0.62,0.67,0.84c0.96,0.92,1.35,1.66,1.55,2.52c0.29,1.18,0.53,2.26,0.45,3.49c-0.08,1.09-0.31,2.17-0.51,3.25
				c-0.18,0.96-0.34,1.94-0.31,2.92c0.04,1.2,0.44,2.3,1.09,3.29c0.62,0.94,1.46,1.7,2.37,2.38c-0.2-0.15-6.85,8.57-7.37,9.47
				c-2.37,4.12-3.69,8.81-4.32,13.5c-1.78,13.26,0.24,26.32,4.08,38.95c-8.05,3.42-15.27,8.98-19.06,16.68
				c-1.19,2.41-3.37,5.54-3.01,8.38c0.55,4.34,6.02,3.12,6.95,6.7c0.2,0.79,0.12,1.67,0.55,2.36c0.51,0.8,1.57,1.05,2.51,0.97
				c0.94-0.09,1.83-0.45,2.77-0.6c2.02-0.33,3.7,0.73,5.32,1.78c2.04,1.32,3.99,2.64,6.42,1.25c3.05-1.75,3.85-7.37,5.11-10.35
				c0.5-1.18,1.02-2.36,1.54-3.53c0.83,1.86,1.68,3.71,2.54,5.54c9.35,20.04,23.52,37.86,40.97,51.44
				c14.19,11.05,31.77,18.83,49.78,21.23c9.09,1.21,18.4,1.03,27.35-1.03c4.35-1,8.55-2.53,12.87-3.63
				c3.63-0.93,7.39-0.64,11.15-0.36c2.36,0.18,4.73,0.36,7.05,0.24c5.15-0.27,10.26-1.15,15.26-2.42c3.34-0.85,6.63-1.89,9.85-3.1
				c6.71-2.52,12.85-6.37,18.46-10.79c2.86-2.26,5.59-4.67,8.22-7.18c2.43-2.32,5.27-4.69,6.91-7.66c0.01-0.01,0.01-0.02,0.02-0.04
				c0.37-0.67,0.65-1.42,0.62-2.18c-0.06-1.41-1.14-2.1-2.46-1.91c-2.78,0.41-5.78,1.92-8.14,3.37
				c-6.57,4.03-13.25,7.99-20.47,10.77c-1.56,0.6-3.15,1.15-4.82,1.27c-2.02,0.15-4.19-0.44-5.58-1.99
				c-1.94-2.16-2.58-6.11-3.2-8.87c-1.48-6.56-1.7-13.41-0.59-20.05c0.57-3.46,1.49-6.85,2.23-10.28c0.32-1.5,2.39-9.11,0.72-9.97
				c-0.91-0.47-1.96,0.27-2.7,0.98c-12.19,11.7-15.04,29.69-26.69,41.9c-2.09,2.2-4.37,4.23-6.8,6.06c-2.5,1.89-4.5,2.8-7.69,2.81
				c-21.94,0.01-43.6-14.1-56.66-30.89c-8-10.29-13.44-22.58-15.6-35.42c1.4,0.74,2.8,1.48,4.18,2.24c2.83,1.57,6.92,5.51,10.4,5
				c4.98-0.72,3.34-7.42,7.37-9.63c0.83-0.45,1.75-0.72,2.55-1.23c0.79-0.51,1.47-1.37,1.38-2.31c-0.08-0.81-0.69-1.45-1.01-2.2
				c-1.48-3.38,3.59-5.8,1.34-9.55c-1.46-2.45-5.11-3.57-7.53-4.74c-5.83-2.81-12.44-3.46-18.96-2.64
				c1.42-14.33,3.52-27.55-6.08-41.25c-2.96-4.23-6.31-8.24-10.28-11.56c-0.72-0.6-1.51-1.1-2.33-1.56c0.64-0.89,1.19-1.85,1.49-2.9
				c0.33-1.14,0.37-2.32,0.05-3.47c-0.26-0.94-0.71-1.82-1.17-2.69c-0.52-0.97-1.06-1.92-1.46-2.95c-0.45-1.15-0.54-2.25-0.62-3.47
				c-0.06-0.88,0.09-1.7,0.72-2.87c0.15-0.28,0.37-0.68,0.39-1c0.01-0.21-0.05-0.28-0.16-0.28
				C198.09,260.5,197.78,260.76,197.66,260.87"/>
		</defs>
		<clipPath id="SVGID_11_">
			<use xlink:href="#SVGID_10_"  style="overflow:visible;"/>
		</clipPath>
		
			<linearGradient id="SVGID_12_" gradientUnits="userSpaceOnUse" x1="-660.8702" y1="956.4326" x2="-659.0529" y2="956.4326" gradientTransform="matrix(56.686 -56.686 -56.686 -56.686 91863.7266 17180.0176)">
			<stop  offset="0" style="stop-color:#96D7F0"/>
			<stop  offset="1.254580e-03" style="stop-color:#96D7F0"/>
			<stop  offset="0.1994" style="stop-color:#95C2F0"/>
			<stop  offset="0.6072" style="stop-color:#938BF1"/>
			<stop  offset="1" style="stop-color:#9051F1"/>
		</linearGradient>
		<polygon class="st3" points="38.56,355.81 255.18,139.19 471.8,355.81 255.18,572.44 		"/>
	</g>
	<g>
		<defs>
			<path id="SVGID_13_" d="M314.99,143.28c-4.35,1-8.55,2.53-12.88,3.63c-3.63,0.93-7.4,0.64-11.15,0.36
				c-2.37-0.18-4.73-0.36-7.05-0.24c-5.15,0.27-10.26,1.15-15.26,2.42c-3.34,0.85-6.63,1.89-9.85,3.1
				c-6.71,2.52-12.85,6.37-18.46,10.79c-2.86,2.25-5.59,4.67-8.22,7.18c-2.43,2.32-5.27,4.68-6.91,7.66
				c-0.01,0.01-0.01,0.03-0.02,0.04c-0.37,0.68-0.65,1.42-0.62,2.18c0.06,1.41,1.14,2.1,2.46,1.9c2.78-0.4,5.78-1.92,8.14-3.37
				c6.57-4.03,13.25-7.99,20.47-10.77c1.56-0.6,3.15-1.15,4.82-1.27c2.02-0.15,4.19,0.45,5.58,1.99c1.94,2.16,2.58,6.11,3.2,8.88
				c1.48,6.56,1.69,13.41,0.59,20.05c-0.57,3.46-1.49,6.85-2.23,10.27c-0.32,1.5-2.39,9.1-0.71,9.97c0.91,0.47,1.96-0.27,2.7-0.98
				c12.19-11.7,15.04-29.69,26.68-41.9c2.1-2.2,4.37-4.23,6.8-6.06c2.5-1.89,4.5-2.8,7.69-2.81c21.94-0.01,43.6,14.11,56.66,30.89
				c8,10.29,13.44,22.58,15.6,35.42c-1.4-0.74-2.81-1.48-4.18-2.24c-2.82-1.57-6.92-5.51-10.4-5c-4.98,0.72-3.34,7.42-7.37,9.62
				c-0.83,0.45-1.75,0.72-2.55,1.23c-0.8,0.51-1.47,1.37-1.38,2.31c0.08,0.81,0.69,1.45,1.01,2.2c1.48,3.38-3.59,5.8-1.34,9.55
				c1.47,2.45,5.12,3.57,7.54,4.74c5.83,2.81,12.44,3.46,18.96,2.64c-1.42,14.33-3.52,27.55,6.08,41.25
				c2.96,4.23,6.31,8.24,10.28,11.56c0.72,0.6,1.51,1.1,2.33,1.56c-0.64,0.89-1.19,1.85-1.49,2.9c-0.33,1.14-0.37,2.32-0.05,3.47
				c0.26,0.94,0.71,1.82,1.17,2.69c0.52,0.97,1.06,1.93,1.46,2.94c0.45,1.16,0.54,2.25,0.62,3.47c0.06,0.88-0.09,1.7-0.72,2.87
				c-0.15,0.28-0.37,0.68-0.39,1c-0.04,0.6,0.6,0.08,0.78-0.09c0.43-0.41,0.82-0.85,1.13-1.35c0.7-1.09,1.07-2.36,1.24-3.63
				c0.19-1.43,0.1-2.79-0.39-4.15c-0.58-1.61-1.53-3.11-1.83-4.81c-0.22-1.24,0.65-1.62,1.56-2.19c0.32-0.2,0.67-0.5,1-0.85
				c0.2,0.13,0.4,0.25,0.59,0.38c0.95,0.67,2.25,1.43,2.78,2.53c0.54,1.11-0.54,2.56,0.74,3.39c0.6,0.39,1.37,0.42,2.09,0.44
				c4.23,0.09,8.45,0.23,12.68,0.23c0.96,0,1.98-0.02,2.78-0.56c1.31-0.88,0.57-2.6,0.95-3.89c0.4-1.37,1.46-2.62,2.32-3.72
				c0.97-1.26,2.08-2.39,3.16-3.55c0.35,0.18,0.7,0.33,1,0.4c1.04,0.27,1.98,0.37,2.15,1.62c0.23,1.72-0.22,3.43-0.29,5.14
				c-0.06,1.45,0.26,2.77,0.87,4.08c0.55,1.16,1.28,2.26,2.28,3.09c0.45,0.38,0.96,0.69,1.49,0.95c0.22,0.11,0.99,0.41,0.77-0.15
				c-0.11-0.3-0.44-0.62-0.67-0.84c-0.96-0.92-1.35-1.66-1.55-2.52c-0.29-1.19-0.54-2.26-0.45-3.49c0.08-1.09,0.3-2.17,0.5-3.25
				c0.18-0.96,0.34-1.94,0.31-2.92c-0.04-1.2-0.44-2.3-1.09-3.29c-0.62-0.94-1.46-1.7-2.37-2.37c0.2,0.15,6.85-8.57,7.37-9.47
				c2.37-4.12,3.69-8.81,4.32-13.5c1.78-13.26-0.24-26.32-4.08-38.95c8.05-3.42,15.27-8.97,19.06-16.68
				c1.19-2.41,3.37-5.54,3.01-8.38c-0.55-4.34-6.02-3.12-6.95-6.7c-0.2-0.79-0.12-1.67-0.55-2.36c-0.51-0.8-1.57-1.05-2.51-0.97
				c-0.94,0.09-1.83,0.45-2.76,0.6c-2.02,0.33-3.7-0.73-5.33-1.78c-2.03-1.32-3.99-2.64-6.41-1.25c-3.06,1.75-3.85,7.37-5.11,10.35
				c-0.5,1.18-1.02,2.36-1.54,3.53c-0.83-1.86-1.68-3.71-2.54-5.54c-9.35-20.04-23.52-37.86-40.97-51.44
				c-14.19-11.04-31.77-18.83-49.79-21.23c-3.69-0.49-7.42-0.75-11.14-0.75C325.75,141.51,320.31,142.06,314.99,143.28"/>
		</defs>
		<clipPath id="SVGID_14_">
			<use xlink:href="#SVGID_13_"  style="overflow:visible;"/>
		</clipPath>
		
			<linearGradient id="SVGID_15_" gradientUnits="userSpaceOnUse" x1="-659.7441" y1="956.5699" x2="-657.9268" y2="956.5699" gradientTransform="matrix(56.686 -56.686 -56.686 -56.686 91935.4141 17095.5117)">
			<stop  offset="0" style="stop-color:#96D7F0"/>
			<stop  offset="1.254580e-03" style="stop-color:#96D7F0"/>
			<stop  offset="0.1994" style="stop-color:#95C2F0"/>
			<stop  offset="0.6072" style="stop-color:#938BF1"/>
			<stop  offset="1" style="stop-color:#9051F1"/>
		</linearGradient>
		<polygon class="st4" points="129.3,236.75 345.85,20.2 562.41,236.75 345.85,453.3 		"/>
	</g>
</g>
</svg>
