<svg width="20" height="24" viewBox="0 0 20 24" fill="none" xmlns="http://www.w3.org/2000/svg">
<path d="M15.8337 8.49992V6.16659C15.8337 2.89992 13.267 0.333252 10.0003 0.333252C6.73366 0.333252 4.16699 2.89992 4.16699 6.16659V8.49992C2.18366 8.49992 0.666992 10.0166 0.666992 11.9999V20.1666C0.666992 22.1499 2.18366 23.6666 4.16699 23.6666H15.8337C17.817 23.6666 19.3337 22.1499 19.3337 20.1666V11.9999C19.3337 10.0166 17.817 8.49992 15.8337 8.49992ZM6.50033 6.16659C6.50033 4.18325 8.01699 2.66659 10.0003 2.66659C11.9837 2.66659 13.5003 4.18325 13.5003 6.16659V8.49992H6.50033V6.16659ZM11.2837 16.0833L11.167 16.1999V17.8333C11.167 18.5333 10.7003 18.9999 10.0003 18.9999C9.30033 18.9999 8.83366 18.5333 8.83366 17.8333V16.1999C8.13366 15.4999 8.01699 14.4499 8.71699 13.7499C9.41699 13.0499 10.467 12.9333 11.167 13.6333C11.867 14.2166 11.9837 15.3833 11.2837 16.0833Z" fill="#D9D9D9"/>
</svg>
