<svg xmlns="http://www.w3.org/2000/svg" width="181" height="50" viewBox="0 0 363.0763347993298 100.42767118360285"><defs id="SvgjsDefs1186"></defs><g id="SvgjsG1187" transform="matrix(1.033858189218964,0,0,1.033858189218964,264.74725903271536,-1.8929138977862072)" fill="currentColor"><path xmlns="http://www.w3.org/2000/svg" d="M92.6,40.4l-1.9-1.3c-2.1-1.4-3-4.1-2.3-6.5l0.6-2.2c1-3.4-1.3-6.9-4.8-7.5l-2.3-0.4c-2.5-0.4-4.5-2.3-4.9-4.8l-0.4-2.3 c-0.6-3.5-4.1-5.7-7.5-4.7l-2.2,0.7c-2.4,0.7-5.1-0.2-6.5-2.2L59,7.2c-2.1-2.9-6.2-3.3-8.8-0.9l-1.7,1.6c-1.9,1.7-4.6,2.1-6.9,0.8 l-2-1.1c-3.1-1.7-7-0.3-8.4,3l-0.9,2.2c-0.9,2.4-3.3,3.9-5.8,3.7l-2.3-0.1c-3.6-0.2-6.5,2.8-6.2,6.3l0.2,2.3 c0.2,2.5-1.3,4.9-3.6,5.9l-2.1,0.9c-3.3,1.4-4.6,5.3-2.9,8.4l1.2,2c1.3,2.2,1,5-0.7,6.9l-1.5,1.7c-2.4,2.7-1.9,6.8,1.1,8.8l1.9,1.3 c2.1,1.4,3,4.1,2.3,6.5L11,69.7c-1,3.4,1.3,6.9,4.8,7.5l2.3,0.4c2.5,0.4,4.5,2.3,4.9,4.8l0.4,2.3c0.6,3.5,4.1,5.7,7.5,4.7l2.2-0.7 c2.4-0.7,5.1,0.2,6.5,2.2l1.4,1.9c2.1,2.9,6.2,3.3,8.8,0.9l1.7-1.6c1.9-1.7,4.6-2.1,6.9-0.8l2,1.1c3.1,1.7,7,0.3,8.4-3l0.9-2.2 c0.9-2.4,3.3-3.9,5.8-3.7l2.3,0.1c3.6,0.2,6.5-2.8,6.2-6.3L83.9,75c-0.2-2.5,1.3-4.9,3.6-5.9l2.1-0.9c3.3-1.4,4.6-5.3,2.9-8.4 l-1.2-2c-1.3-2.2-1-5,0.7-6.9l1.5-1.7C96,46.6,95.5,42.4,92.6,40.4z M52.7,59.3l-8.2,8.1l-8.1-8.2l-7.8-7.9l8.2-8.1l7.8,7.9 l18.7-18.6l8.1,8.2L52.7,59.3z"></path></g><g id="SvgjsG1188" transform="matrix(3.245214007543181,0,0,3.245214007543181,-0.004210483784031641,-31.271128726987357)" fill="#d24b5d"><path d="M23.88 18.88 c-1.96 1.84 -4.64 2.92 -7.12 4.2 c-0.24 -1.6 -1.2 -2.6 -2.52 -2.8 c-6 -0.84 -5 10.12 -0.16 8.28 c0.84 -0.32 1.36 -1.44 1.68 -2.12 c2.76 1.24 5.28 2.68 7.44 4.48 c-1.28 6.16 -6.12 10.72 -14.44 8.84 c-5.56 -1.28 -8.2 -7.24 -8.68 -13.32 c-0.76 -9.24 4 -16.76 13.6 -16.8 c6.32 -0.04 9.04 3.84 10.2 9.24 z M36.265 10.719999999999999 c2.28 5.4 4.12 9.92 6 15.44 c0.2 -5.2 0.16 -10.2 0.36 -15.48 c2.52 -0.16 6.56 -0.44 9.32 -0.48 c0 8.92 0.08 20.32 -0.44 29.68 c-2 0.16 -5.92 0.2 -8.68 0.12 c-2.92 -2.68 -4.76 -6 -7.4 -9.52 c0.36 2.92 0.96 6.6 1.08 9.2 c-3.04 0.48 -6.88 0.28 -10.2 0.32 c-0.4 -9.52 -0.12 -19.52 -0.28 -29.4 c3.68 -0.12 7.2 -0.08 10.24 0.12 z M76.08999999999999 12.48 c-0.24 2.48 -1.32 5.56 -2.32 7.12 c-0.76 -0.16 -3 -1.32 -4.68 -1.52 c-1.56 -0.2 -3.08 -0.04 -3.36 0.96 c-0.64 2.56 4.24 3.48 7.44 5.6 c5.44 3.64 5.04 12.16 -0.56 14.88 c-4.68 2.2 -12.52 0.52 -17.12 -0.88 c0.24 -3.48 0.44 -5.72 1.6 -8.84 c1.92 0.16 8.32 2.24 8.64 -0.8 c0.16 -1.48 -2.12 -2.12 -3.64 -2.8 c-3.12 -1.44 -6.6 -3.24 -6.88 -7.44 c-0.64 -10.32 14.12 -11.08 20.88 -6.28 z"></path></g></svg>