<svg xmlns="http://www.w3.org/2000/svg" viewBox="0 0 874.1681 874.1681"><title>Monochromes</title><g id="Layer_2" data-name="Layer 2"><path d="M153.5777,476.24V351.0986c-56.31-1.499-94.1851-26.586-109.3808-83.9313,27.8668,14.7658,53.6815,10.2295,79.5-1.3663,44.585-20.0241,89.3627-39.6193,133.9637-59.6081,2.37-1.0623,5.43-4.0545,5.4968-6.23.4749-15.4519.2529-30.9252.2529-47.2208-39.5181-.9615-67.0821-17.8027-79.4256-58.3147,19.4248,9.415,37.1266,6.7366,54.6386-1.2978,12.7288-5.84,25.6333-11.2966,38.4455-16.9558,14.38-6.3519,28.6322-13.0132,43.16-19.0071,8.5188-3.5147,17.4661-5.991,27.76-9.4519V33.0989h18.95c.2719-5.4124.4977-9.9073.7556-15.0424h40.143c.3046,4.6153.6157,9.3293.9569,14.4981H465.35c.2439-4.7985.4717-9.28.7348-14.4555h40.2009c.25,4.5012.5128,9.2156.8268,14.8593h18.54v15.07c36.0931,8.6577,66.9084,27.8705,100.2379,40.7736,7.9869,3.0919,15.686,7.0373,23.8325,9.5812,12.6,3.9344,23.0988,2.7336,38.4961-2.9583-.4577,29.2526-30.3185,51.785-77.41,57.5446,0,16.0637-.1219,32.3294.2053,48.5862.03,1.4828,2.6951,3.4567,4.5468,4.2792,48.5846,21.5814,97.0556,43.4326,145.9284,64.3444,22.1949,9.4968,44.9826,9.3949,67.1416-2.347-6.77,48.1318-43.1289,76.316-107.7154,83.3976v144.006c-14.819,4.3659-28.6449,8.7033-42.652,12.3439-2.8083.73-6.3044-1.7933-9.4857-1.8007q-74.1472-.1707-148.2951-.0192a15.2874,15.2874,0,0,0-3.02.7624v51.9247c-6.5727-1.401-12.4233-1.8065-17.5575-3.9377-7.9074-3.2823-15.1409-8.1722-23.0129-11.561-5.156-2.2193-6.2379-5.3551-6.21-10.5435.2068-38.7973.1123-77.5961.1121-116.3944v-9.8362H375.95v91.2779c-15.0423-4.5176-29.2462-8.5411-43.209-13.2756-1.7981-.61-3.2959-4.8965-3.3244-7.4976-.2548-23.2508-.1485-46.5054-.1485-70.3932H199.9307c0,18.0894-.4145,36.1077.1866,54.0919.273,8.1661-2.0812,10.7328-10.4041,11.1022C177.8651,472.0058,166.1038,474.4907,153.5777,476.24ZM200.245,376.696H673.65V351.3127H200.245ZM673.75,406.2768H517.9487v68.0288H673.75ZM477.3228,152.8313H396.8135v50.6144h80.5093Zm29.6629-.2108v50.6779h57.23V152.6205Zm-139.85,50.9326V152.6467h-57.02v50.9064Z"/><path d="M125.6728,733.1364C74.4607,677.9285,40.1266,614.2626,22.2291,541.2944c42.6483-28.8425,88.321-49.7309,138.7294-59.6818,77.6981-15.3379,151.942-1.24,224.5238,26.53,60.311,23.0751,116.473,54.6417,173.2682,84.9247,40.6132,21.6546,81.1777,43.54,125.679,56.5362,32.1634,9.3928,64.7059,13.5266,96.8706.9085,13.14-5.155,25.18-13.1149,37.6514-19.7619-.1353-.7842.29.0322.0481.5132-20.3664,40.4977-44.7313,78.4159-78.645,108.8C709.61,767.6068,672.06,779.9989,630.9937,781.6319c-53.2116,2.1159-102.9963-12.7444-151.7454-31.7417-42.841-16.6949-85.1018-34.8868-128.0179-51.3791-34.8413-13.3893-71.2413-19.6263-108.6432-16.7032-36.2394,2.8323-68.68,16.5025-98.2017,37.3755C138.3,723.4865,132.425,728.0888,125.6728,733.1364Z"/><path d="M130.3556,737.5019c32.3092-26.3977,67.41-44.6033,109.06-49.16,46.7961-5.1195,90.2125,7.5118,132.8381,24.13,43.6308,17.01,86.6913,35.492,130.4161,52.2478,35.9562,13.7789,73.4289,21.98,112.0226,23.2639,29.1656.9705,57.6149-3.6387,84.6577-15.25a52.666,52.666,0,0,1,8.4822-3.067C552.2537,905.5346,290.7936,906.3055,130.3556,737.5019Z"/><path d="M519.0175,564.8221c49.4566-6.0158,94.0481-25.2757,139.1665-42.9578,26.04-10.205,52.34-19.4211,80.7-21.7021,31.5253-2.5356,60.0438,5.4126,86.5991,21.7045,6.5791,4.0363,12.4168,9.3068,19.0829,13.1681,6.31,3.6551,7.79,7.9822,5.427,14.7076-6.2352,17.7484-11.1912,36.0059-18.3927,53.3394-8.198,19.7323-26.2686,29.8222-44.3226,38.5787-29.5732,14.3434-60.4854,12.6889-91.4146,4.8021-44.6967-11.3975-85.0922-32.8866-125.5727-54.1035C553.1085,583.3535,536.1032,574.0113,519.0175,564.8221Z"/></g></svg>