<?xml version="1.0" standalone="no"?>
<!DOCTYPE svg PUBLIC "-//W3C//DTD SVG 20010904//EN"
 "http://www.w3.org/TR/2001/REC-SVG-20010904/DTD/svg10.dtd">
<svg version="1.0" xmlns="http://www.w3.org/2000/svg"
 width="2522.000000pt" height="2522.000000pt" viewBox="0 0 2522.000000 2522.000000"
 preserveAspectRatio="xMidYMid meet">
<metadata>
Created by potrace 1.14, written by Peter Selinger 2001-2017
</metadata>
<g transform="translate(0.000000,2522.000000) scale(0.100000,-0.100000)"
fill="#000000" stroke="none">
<path d="M12306 25213 c-1 -1 -67 -4 -146 -7 -205 -8 -411 -19 -550 -31 -62
-5 -194 -16 -240 -20 -25 -2 -63 -6 -85 -9 -22 -3 -67 -8 -100 -11 -33 -3 -71
-8 -85 -10 -14 -3 -52 -7 -85 -11 -33 -3 -63 -11 -67 -18 -6 -8 -8 -7 -8 2 0
7 -4 11 -9 8 -5 -3 -31 -8 -58 -11 -26 -3 -57 -8 -68 -9 -11 -2 -45 -7 -75
-11 -30 -4 -58 -13 -62 -19 -5 -8 -8 -7 -8 2 0 7 -5 10 -10 7 -12 -7 -40 -13
-95 -19 -22 -2 -58 -8 -80 -12 -22 -3 -46 -7 -52 -7 -7 0 -13 -3 -13 -6 0 -3
-12 -7 -27 -7 -16 -1 -44 -5 -63 -8 -19 -4 -46 -9 -60 -11 -14 -3 -36 -7 -50
-10 -14 -3 -40 -8 -59 -11 -35 -6 -54 -9 -111 -21 -46 -9 -50 -10 -52 -13 -4
-2 -23 -6 -68 -15 -19 -3 -84 -17 -145 -31 -60 -14 -117 -27 -125 -29 -52 -12
-310 -80 -385 -101 -49 -15 -105 -29 -122 -31 -18 -3 -33 -10 -33 -16 0 -6 -3
-8 -6 -5 -5 6 -126 -25 -174 -45 -14 -5 -32 -11 -40 -12 -18 -2 -88 -23 -115
-35 -11 -5 -65 -23 -120 -40 -55 -17 -109 -35 -120 -40 -11 -4 -95 -34 -187
-66 -93 -32 -168 -60 -168 -64 0 -3 -9 -6 -20 -7 -11 -1 -35 -9 -52 -17 -17
-9 -34 -16 -38 -16 -4 0 -25 -8 -46 -17 -22 -9 -42 -17 -46 -17 -3 -1 -10 -4
-14 -8 -4 -5 -14 -8 -21 -8 -8 0 -33 -9 -56 -19 -64 -29 -121 -54 -127 -56
-27 -7 -66 -23 -120 -48 -36 -16 -117 -52 -180 -79 -63 -28 -117 -53 -120 -57
-3 -3 -12 -7 -20 -9 -8 -2 -80 -35 -159 -73 -79 -39 -154 -75 -165 -80 -29
-12 -285 -146 -368 -192 -38 -20 -98 -54 -135 -74 -103 -55 -344 -197 -476
-279 -66 -41 -123 -74 -127 -74 -5 0 -10 -3 -12 -8 -1 -4 -52 -39 -113 -77
-60 -38 -118 -77 -128 -86 -10 -9 -38 -27 -62 -39 -25 -13 -45 -27 -45 -31 0
-4 -15 -15 -34 -24 -18 -9 -43 -25 -54 -35 -12 -11 -24 -20 -28 -20 -4 0 -17
-8 -28 -19 -12 -10 -52 -40 -91 -67 -213 -146 -702 -528 -697 -545 1 -5 -2 -8
-6 -7 -5 2 -26 -10 -47 -27 -45 -35 -128 -105 -135 -114 -3 -4 -21 -19 -40
-35 -225 -184 -814 -750 -805 -774 2 -7 0 -10 -5 -7 -6 4 -30 -14 -54 -39 -24
-25 -42 -46 -41 -46 1 0 -28 -31 -64 -68 -95 -99 -148 -157 -221 -242 -36 -41
-82 -94 -104 -117 -21 -23 -46 -53 -54 -65 -9 -13 -19 -25 -22 -28 -31 -24
-130 -153 -124 -162 4 -6 3 -8 -4 -4 -6 3 -23 -10 -39 -31 -15 -21 -32 -43
-38 -49 -5 -6 -23 -29 -40 -50 -16 -21 -42 -52 -56 -69 -77 -91 -365 -486
-496 -679 -46 -66 -87 -128 -93 -136 -23 -32 -157 -243 -195 -305 -22 -37 -46
-73 -52 -80 -7 -7 -13 -16 -13 -19 0 -3 -27 -50 -60 -103 -33 -54 -60 -103
-60 -110 0 -6 -4 -13 -8 -15 -9 -3 -56 -82 -94 -158 -13 -25 -26 -47 -29 -50
-8 -7 -173 -315 -206 -385 -15 -33 -30 -62 -33 -65 -3 -3 -19 -34 -37 -70 -36
-74 -170 -355 -184 -385 -83 -185 -119 -272 -114 -283 2 -7 1 -11 -4 -8 -8 5
-67 -133 -156 -364 -20 -52 -40 -104 -45 -115 -31 -79 -43 -111 -73 -195 -78
-214 -128 -373 -123 -387 3 -8 2 -11 -4 -8 -5 3 -14 -14 -20 -37 -6 -24 -18
-63 -26 -88 -22 -66 -101 -333 -108 -365 -1 -5 -5 -19 -9 -30 -3 -11 -9 -31
-11 -45 -3 -14 -14 -55 -25 -93 -11 -37 -22 -80 -25 -95 -2 -15 -12 -52 -20
-84 -8 -31 -17 -67 -20 -80 -8 -40 -14 -62 -30 -129 -33 -134 -73 -326 -82
-388 -2 -18 -6 -36 -8 -40 -3 -3 -7 -27 -11 -51 -3 -25 -8 -52 -10 -60 -2 -8
-7 -31 -10 -50 -3 -19 -10 -59 -16 -88 -6 -29 -8 -59 -5 -67 3 -8 1 -15 -3
-17 -5 -2 -11 -27 -15 -57 -4 -30 -9 -64 -11 -75 -2 -12 -7 -38 -10 -58 -10
-71 -15 -108 -21 -145 -3 -21 -7 -58 -10 -83 -2 -25 -9 -79 -14 -120 -5 -41
-12 -100 -15 -130 -3 -30 -8 -68 -10 -85 -2 -16 -7 -61 -10 -100 -4 -38 -8
-72 -11 -74 -2 -2 1 -10 7 -18 6 -7 7 -13 2 -13 -5 0 -10 -6 -10 -12 0 -12
-11 -174 -18 -263 -19 -271 -28 -1148 -13 -1380 4 -55 9 -149 12 -210 9 -169
14 -245 20 -300 3 -27 8 -83 12 -124 3 -41 8 -84 10 -95 2 -11 6 -50 9 -86 3
-36 8 -81 10 -100 3 -19 7 -57 10 -85 3 -27 8 -63 11 -80 3 -16 7 -41 9 -55
30 -234 39 -289 46 -284 5 3 6 -1 3 -9 -5 -13 23 -195 51 -337 8 -45 16 -84
21 -115 35 -203 188 -833 268 -1105 160 -543 394 -1177 592 -1608 19 -41 34
-75 34 -77 0 -6 129 -273 199 -415 90 -180 226 -433 317 -591 40 -70 82 -143
92 -161 79 -139 311 -505 428 -676 139 -202 184 -264 319 -447 202 -272 562
-715 700 -861 5 -6 46 -51 90 -100 255 -281 628 -651 920 -914 108 -96 134
-119 260 -226 256 -217 644 -519 840 -655 28 -19 52 -36 55 -39 20 -21 431
-293 634 -419 353 -220 1026 -583 1336 -721 41 -18 109 -49 150 -68 41 -19
170 -74 285 -122 1138 -475 2376 -788 3570 -904 88 -9 180 -18 205 -21 25 -2
97 -7 160 -11 63 -3 126 -8 140 -10 159 -24 1328 -24 1560 1 19 2 82 6 140 10
58 3 119 8 135 10 17 2 64 7 105 10 74 6 126 11 205 20 22 3 65 8 95 11 608
65 1386 221 2032 408 542 156 1188 393 1643 601 1072 490 1955 1037 2835 1755
120 98 440 374 516 445 366 341 708 691 994 1020 58 66 110 125 115 131 6 6
26 31 46 55 20 24 70 85 110 134 887 1077 1635 2395 2104 3711 96 268 218 644
240 735 2 9 13 47 24 86 16 54 69 247 85 308 16 63 113 480 122 525 2 14 9 48
15 75 6 28 13 64 15 80 3 17 7 39 10 50 7 38 42 220 48 255 3 19 8 46 10 60 8
46 37 235 42 275 3 22 7 54 9 70 2 17 4 30 5 30 1 0 3 11 5 25 4 45 18 154 31
253 6 46 12 103 19 187 3 30 7 75 10 100 51 518 63 1231 31 1850 -7 129 -25
390 -32 440 -2 19 -6 64 -9 100 -3 36 -8 82 -11 103 -3 21 -7 56 -9 76 -7 87
-21 196 -25 196 -1 0 -3 16 -4 35 -12 123 -19 176 -25 180 -3 3 -7 19 -7 35
-2 37 -13 125 -18 145 -3 8 -7 38 -11 65 -3 28 -12 82 -20 120 -8 39 -16 84
-19 100 -8 51 -45 238 -55 280 -6 22 -10 42 -10 45 -2 38 -15 89 -22 84 -5 -3
-6 2 -3 10 3 9 3 24 -1 34 -5 9 -9 22 -10 27 -9 65 -19 112 -25 120 -5 6 -8
12 -8 15 3 19 -15 99 -21 96 -4 -3 -6 8 -3 23 2 16 -2 34 -12 43 -8 9 -13 18
-10 21 5 4 -12 86 -24 117 -3 8 -6 17 -6 20 -1 3 -8 33 -15 67 -8 35 -16 61
-20 59 -3 -2 -7 12 -8 31 -1 19 -7 41 -14 49 -6 8 -9 14 -6 14 3 0 1 15 -4 33
-6 17 -12 39 -14 47 -10 40 -67 227 -74 245 -5 11 -14 40 -21 65 -15 54 -49
157 -60 185 -5 11 -30 81 -55 155 -91 263 -98 279 -108 273 -6 -4 -7 -1 -3 6
7 11 2 29 -29 106 -7 17 -29 73 -50 125 -20 52 -43 109 -50 125 -7 17 -39 91
-70 165 -147 344 -471 1004 -546 1112 -11 14 -19 30 -19 34 0 12 -169 302
-248 426 -18 28 -52 83 -75 121 -59 98 -87 142 -109 172 -4 6 -58 87 -120 180
-61 94 -115 172 -120 173 -4 2 -8 10 -8 18 0 8 -4 14 -10 14 -5 0 -10 4 -10
10 0 9 -19 35 -47 65 -7 8 -13 17 -13 22 0 4 -9 19 -20 33 -11 14 -45 59 -76
100 -30 41 -63 85 -72 97 -9 12 -24 32 -32 44 -8 12 -25 34 -36 48 -12 14 -55
69 -96 121 -40 52 -81 104 -90 115 -41 51 -268 323 -287 345 -12 14 -46 52
-74 85 -255 294 -671 717 -984 1001 -143 130 -190 172 -268 237 -27 23 -70 60
-95 82 -86 75 -113 94 -122 89 -5 -3 -7 -1 -6 5 3 11 -169 152 -397 325 -27
21 -63 47 -79 59 -16 12 -34 27 -40 32 -6 6 -40 30 -76 54 -36 25 -67 47 -70
50 -3 4 -25 20 -50 37 -25 17 -79 55 -120 84 -117 81 -449 300 -455 300 -4 0
-21 10 -38 23 -18 12 -41 27 -52 34 -11 6 -99 59 -195 116 -96 57 -195 116
-220 129 -25 14 -63 35 -85 48 -123 70 -203 109 -210 102 -5 -4 -5 -2 -2 4 8
13 -60 47 -75 38 -6 -4 -8 -3 -5 3 7 11 -347 191 -618 313 -115 52 -140 63
-145 65 -3 0 -25 10 -50 22 -25 11 -97 42 -160 67 -63 26 -130 54 -149 63 -19
8 -44 16 -56 17 -13 0 -21 4 -19 7 2 4 -18 14 -44 24 -94 34 -158 58 -187 70
-59 25 -579 205 -592 205 -4 0 -57 16 -118 36 -60 19 -144 44 -185 55 -41 11
-97 27 -125 35 -82 23 -515 134 -548 140 -17 2 -33 7 -37 9 -4 2 -20 6 -36 9
-16 3 -92 19 -169 35 -182 38 -214 44 -247 45 -16 1 -28 4 -28 7 0 4 -21 9
-47 12 -43 6 -70 10 -183 32 -19 4 -48 8 -65 10 -16 2 -61 9 -100 15 -118 18
-199 30 -245 35 -14 2 -43 6 -65 9 -22 3 -65 8 -95 11 -30 3 -66 7 -80 9 -14
2 -52 7 -85 10 -33 4 -73 9 -90 11 -16 2 -70 7 -120 10 -49 4 -104 8 -122 10
-30 4 -144 12 -283 20 -279 17 -759 25 -767 13 -2 -5 -10 -5 -16 -1 -10 6
-255 12 -261 6z m11299 -7672 c3 -5 2 -12 -3 -15 -5 -3 -9 1 -9 9 0 17 3 19
12 6z"/>
</g>
</svg>
