<?xml version="1.0" standalone="no"?>
<!DOCTYPE svg PUBLIC "-//W3C//DTD SVG 20010904//EN"
 "http://www.w3.org/TR/2001/REC-SVG-20010904/DTD/svg10.dtd">
<svg version="1.0" xmlns="http://www.w3.org/2000/svg"
 width="3644.000000pt" height="3644.000000pt" viewBox="0 0 3644.000000 3644.000000"
 preserveAspectRatio="xMidYMid meet">
<metadata>
Created by potrace 1.14, written by Peter Selinger 2001-2017
</metadata>
<g transform="translate(0.000000,3644.000000) scale(0.100000,-0.100000)"
fill="#000000" stroke="none">
<path d="M15760 33695 l0 -295 -360 0 -360 0 2 -327 3 -328 3318 -3 3317 -2 0
330 0 330 -355 0 -355 0 -2 293 -3 292 -762 3 -763 2 0 -295 0 -295 -1074 0
-1073 0 -7 38 c-3 20 -6 153 -6 295 l0 257 -760 0 -760 0 0 -295z"/>
<path d="M13600 32318 c-63 -28 -398 -175 -745 -328 -1540 -678 -2100 -922
-2240 -975 -122 -45 -323 -98 -465 -122 -161 -27 -505 -25 -662 5 -199 38
-419 119 -560 208 -21 13 -38 20 -38 15 0 -5 13 -61 30 -124 62 -242 176 -513
309 -736 505 -844 1346 -1307 2449 -1348 l172 -6 0 -954 0 -953 875 0 875 0 0
955 0 955 1085 0 1085 0 0 -955 0 -955 535 0 535 0 0 955 0 955 1520 0 1520 0
0 -955 0 -955 540 0 540 0 0 955 0 955 1085 0 1085 0 0 -955 0 -955 875 0 875
0 0 955 0 955 88 0 c202 0 535 38 752 87 962 214 1675 841 2017 1773 33 90
105 351 98 358 -1 2 -20 -9 -41 -23 -203 -139 -566 -235 -890 -235 -346 0
-619 66 -1064 257 -266 114 -1845 807 -2744 1204 l-89 39 -4646 -1 -4646 0
-115 -51z"/>
<path d="M10720 26498 c-50 -23 -905 -399 -1095 -483 -66 -28 -407 -179 -757
-333 -954 -422 -1806 -795 -2358 -1035 -526 -228 -870 -319 -1321 -348 -516
-35 -1059 89 -1454 331 l-65 40 6 -43 c26 -175 150 -575 246 -796 369 -848
954 -1481 1728 -1870 549 -275 1182 -429 1845 -447 99 -3 199 -7 223 -10 l42
-5 0 -2401 0 -2400 23 5 c216 54 795 154 1137 196 210 26 537 61 578 61 9 0
12 257 12 1250 l0 1250 2410 0 2410 0 0 -1497 0 -1498 172 -49 c270 -76 717
-216 1159 -362 223 -74 409 -134 412 -134 4 0 7 797 7 1770 l0 1770 1770 0
1770 0 0 -2549 c0 -2027 3 -2551 13 -2559 6 -5 143 -79 302 -162 669 -351
1192 -629 2765 -1473 1152 -617 2397 -1242 3150 -1580 1128 -506 2142 -814
3045 -926 786 -97 1336 -70 1948 99 583 161 1134 445 1617 835 134 108 403
358 540 501 52 54 99 98 105 96 5 -2 7 0 3 4 -4 4 -4 12 1 18 18 22 215 508
303 746 72 197 167 470 163 470 -2 0 -1053 191 -2335 425 -1781 324 -2336 421
-2349 413 -12 -7 -37 -7 -89 2 -69 11 -97 29 -49 31 12 1 -43 13 -123 29 -115
21 -140 29 -122 36 17 8 -7 15 -115 33 -147 26 -193 40 -133 42 19 0 -129 31
-330 69 -201 37 -367 66 -368 65 -2 -2 9 -11 25 -19 27 -15 27 -16 3 -11 -69
14 -1066 195 -1075 195 -5 -1 -1 -8 10 -17 20 -15 19 -15 -5 -10 -14 3 -388
72 -831 153 l-807 146 -213 -77 c-1146 -416 -2132 -664 -3039 -765 -102 -11
-200 -22 -217 -24 l-33 -5 0 1021 0 1021 368 -6 c202 -4 1513 -7 2915 -7
l2547 0 0 -125 c0 -69 1 -125 3 -125 2 0 86 29 187 65 479 171 1008 321 1415
403 l140 28 3 2766 2 2766 31 6 c17 3 84 6 148 6 226 0 577 36 841 86 1336
252 2322 1042 2841 2275 61 146 147 402 183 549 28 114 56 250 50 250 -1 0
-23 -14 -48 -30 -231 -156 -615 -284 -991 -331 -128 -16 -501 -16 -630 0 -355
43 -695 136 -1037 282 -322 137 -1686 735 -2618 1147 -990 437 -1429 631
-1597 703 l-183 79 -7592 -1 -7593 -1 -45 -20z m16490 -5478 l0 -480 -8850 0
-8850 0 0 480 0 480 8850 0 8850 0 0 -480z m0 -2845 l0 -1285 -2915 0 -2915 0
0 1285 0 1285 2915 0 2915 0 0 -1285z"/>
<path d="M7010 16506 c-476 -137 -972 -312 -1415 -496 -728 -303 -1499 -691
-2115 -1063 -284 -172 -760 -480 -760 -493 0 -2 25 -105 56 -227 499 -1991
1359 -3833 2574 -5515 368 -510 911 -1166 1278 -1544 84 -87 85 -88 107 -70
12 9 110 87 216 173 1082 872 2212 1428 3379 1663 479 96 884 136 1400 136
964 0 1889 -159 3080 -532 767 -239 1551 -545 3155 -1231 746 -319 921 -393
1260 -532 1036 -424 1934 -740 2800 -984 70 -20 66 -20 -4192 -20 l-4262 -1
-3 -21 c-7 -46 -59 -52 -500 -58 l-407 -6 -28 -28 c-22 -20 -39 -27 -70 -27
-23 0 -45 -5 -48 -10 -4 -6 -53 -10 -114 -10 -84 0 -111 -3 -121 -15 -8 -9
-30 -15 -60 -15 -34 0 -52 -5 -65 -20 -13 -15 -31 -20 -65 -20 -37 0 -51 -5
-70 -25 -18 -19 -34 -25 -65 -25 -29 0 -47 -6 -60 -20 -17 -19 -31 -20 -329
-20 -301 0 -314 -1 -401 -25 -89 -25 -93 -25 -520 -25 -347 0 -441 -3 -485
-15 -77 -21 -488 -21 -425 0 63 20 -348 21 -425 0 -40 -11 -112 -15 -269 -15
-186 0 -224 -3 -288 -21 -58 -16 -77 -18 -89 -8 -8 6 -14 9 -14 6 0 -8 308
-235 510 -376 1003 -703 2093 -1294 3215 -1743 2417 -968 5002 -1332 7615
-1072 3014 300 5881 1455 8285 3338 317 248 780 642 936 796 l66 65 -61 -55
c-151 -137 -442 -390 -544 -473 l-70 -57 -346 2 -347 3 158 65 c570 234 1192
610 1701 1029 67 56 126 101 130 101 4 0 -92 -100 -213 -223 -121 -123 -87
-90 75 73 317 317 521 536 799 860 872 1013 1610 2129 2210 3340 109 220 288
601 319 680 9 22 -47 -38 -192 -205 -248 -284 -603 -624 -911 -872 -862 -693
-1837 -1127 -2860 -1272 -282 -40 -381 -46 -790 -46 -427 0 -536 8 -900 61
-362 53 -826 160 -1295 299 -299 88 -1071 346 -1290 430 -749 289 -1513 651
-2790 1320 -617 323 -664 349 -1411 761 -437 241 -758 389 -1559 719 -1514
624 -2425 911 -3440 1084 -614 105 -1094 145 -1715 144 -625 -1 -1308 -55
-1905 -152 -135 -22 -177 -26 -185 -16 -19 23 -4529 2619 -4554 2622 -14 2
-141 -30 -281 -71z m22960 -9469 c0 -2 -17 -19 -37 -38 l-38 -34 34 38 c33 34
41 42 41 34z"/>
<path d="M7220 6565 c13 -14 26 -25 28 -25 3 0 -5 11 -18 25 -13 14 -26 25
-28 25 -3 0 5 -11 18 -25z"/>
<path d="M29360 6435 c-41 -41 -72 -75 -69 -75 2 0 38 34 79 75 41 41 72 75
69 75 -2 0 -38 -34 -79 -75z"/>
<path d="M7420 6375 c13 -14 26 -25 28 -25 3 0 -5 11 -18 25 -13 14 -26 25
-28 25 -3 0 5 -11 18 -25z"/>
<path d="M7545 6260 c10 -11 20 -20 23 -20 3 0 -3 9 -13 20 -10 11 -20 20 -23
20 -3 0 3 -9 13 -20z"/>
<path d="M7610 6207 c0 -2 15 -16 33 -33 l32 -29 -29 33 c-28 30 -36 37 -36
29z"/>
<path d="M7730 6095 c13 -14 26 -25 28 -25 3 0 -5 11 -18 25 -13 14 -26 25
-28 25 -3 0 5 -11 18 -25z"/>
<path d="M7810 6025 c13 -14 26 -25 28 -25 3 0 -5 11 -18 25 -13 14 -26 25
-28 25 -3 0 5 -11 18 -25z"/>
<path d="M7885 5960 c10 -11 20 -20 23 -20 3 0 -3 9 -13 20 -10 11 -20 20 -23
20 -3 0 3 -9 13 -20z"/>
<path d="M7955 5900 c10 -11 20 -20 23 -20 3 0 -3 9 -13 20 -10 11 -20 20 -23
20 -3 0 3 -9 13 -20z"/>
<path d="M8015 5850 c10 -11 20 -20 23 -20 3 0 -3 9 -13 20 -10 11 -20 20 -23
20 -3 0 3 -9 13 -20z"/>
<path d="M8075 5800 c10 -11 20 -20 23 -20 3 0 -3 9 -13 20 -10 11 -20 20 -23
20 -3 0 3 -9 13 -20z"/>
<path d="M8135 5750 c10 -11 20 -20 23 -20 3 0 -3 9 -13 20 -10 11 -20 20 -23
20 -3 0 3 -9 13 -20z"/>
<path d="M8195 5700 c10 -11 20 -20 23 -20 3 0 -3 9 -13 20 -10 11 -20 20 -23
20 -3 0 3 -9 13 -20z"/>
<path d="M8245 5660 c10 -11 20 -20 23 -20 3 0 -3 9 -13 20 -10 11 -20 20 -23
20 -3 0 3 -9 13 -20z"/>
<path d="M8295 5620 c10 -11 20 -20 23 -20 3 0 -3 9 -13 20 -10 11 -20 20 -23
20 -3 0 3 -9 13 -20z"/>
<path d="M8345 5580 c10 -11 20 -20 23 -20 3 0 -3 9 -13 20 -10 11 -20 20 -23
20 -3 0 3 -9 13 -20z"/>
<path d="M8395 5540 c10 -11 20 -20 23 -20 3 0 -3 9 -13 20 -10 11 -20 20 -23
20 -3 0 3 -9 13 -20z"/>
<path d="M8430 5517 c0 -3 18 -20 40 -37 22 -17 40 -29 40 -27 0 3 -18 20 -40
37 -22 17 -40 29 -40 27z"/>
<path d="M8520 5447 c0 -3 18 -20 40 -37 22 -17 40 -29 40 -27 0 3 -18 20 -40
37 -22 17 -40 29 -40 27z"/>
<path d="M8610 5376 c0 -2 8 -10 18 -17 15 -13 16 -12 3 4 -13 16 -21 21 -21
13z"/>
</g>
</svg>
