<?xml version="1.0" encoding="utf-8"?>
<!-- Generator: Adobe Illustrator 23.0.4, SVG Export Plug-In . SVG Version: 6.00 Build 0)  -->
<svg version="1.1" id="Capa_1" xmlns="http://www.w3.org/2000/svg" xmlns:xlink="http://www.w3.org/1999/xlink" x="0px" y="0px"
	 viewBox="0 0 595.28 549.98" style="enable-background:new 0 0 595.28 549.98;" xml:space="preserve">
<style type="text/css">
	.st0{clip-path:url(#SVGID_2_);fill:url(#SVGID_3_);}
	.st1{clip-path:url(#SVGID_5_);fill:url(#SVGID_6_);}
	.st2{clip-path:url(#SVGID_8_);fill:url(#SVGID_9_);}
	.st3{clip-path:url(#SVGID_11_);fill:url(#SVGID_12_);}
</style>
<g>
	<g>
		<g>
			<defs>
				<path id="SVGID_1_" d="M85.21,275.92C85.21,157,181.6,60.61,300.52,60.61c118.91,0,215.31,96.4,215.31,215.31
					s-96.4,215.31-215.31,215.31C181.6,491.23,85.21,394.83,85.21,275.92 M58.35,275.92c0,133.74,108.43,242.17,242.17,242.17
					s242.17-108.43,242.17-242.17c0-133.75-108.42-242.17-242.17-242.17S58.35,142.17,58.35,275.92"/>
			</defs>
			<clipPath id="SVGID_2_">
				<use xlink:href="#SVGID_1_"  style="overflow:visible;"/>
			</clipPath>
			
				<linearGradient id="SVGID_3_" gradientUnits="userSpaceOnUse" x1="-662.7405" y1="-119.8001" x2="-660.801" y2="-119.8001" gradientTransform="matrix(-249.7255 0 0 -249.7255 -164960.5156 -29641.2246)">
				<stop  offset="0" style="stop-color:#9051F1"/>
				<stop  offset="4.461080e-03" style="stop-color:#9051F1"/>
				<stop  offset="0.1994" style="stop-color:#8850EC"/>
				<stop  offset="0.4985" style="stop-color:#734EDF"/>
				<stop  offset="0.8626" style="stop-color:#504BCA"/>
				<stop  offset="1" style="stop-color:#4149C1"/>
			</linearGradient>
			<rect x="58.35" y="33.75" class="st0" width="484.34" height="484.34"/>
		</g>
	</g>
	<g>
		<g>
			<defs>
				<path id="SVGID_4_" d="M261.04,295.19v-38.54c0-11.16,9.05-20.2,20.2-20.2h38.54c11.16,0,20.2,9.05,20.2,20.2v38.54
					c0,11.15-9.04,20.2-20.2,20.2h-38.54C270.09,315.4,261.04,306.35,261.04,295.19 M76.59,275.92
					c0,123.67,100.25,223.93,223.93,223.93S524.45,399.6,524.45,275.92S424.2,51.99,300.52,51.99S76.59,152.24,76.59,275.92"/>
			</defs>
			<clipPath id="SVGID_5_">
				<use xlink:href="#SVGID_4_"  style="overflow:visible;"/>
			</clipPath>
			
				<linearGradient id="SVGID_6_" gradientUnits="userSpaceOnUse" x1="-661.0255" y1="-117.6105" x2="-659.0861" y2="-117.6105" gradientTransform="matrix(163.282 -163.282 163.282 163.282 127279.3984 -88295.6094)">
				<stop  offset="0" style="stop-color:#9051F1"/>
				<stop  offset="4.461080e-03" style="stop-color:#9051F1"/>
				<stop  offset="0.1994" style="stop-color:#8850EC"/>
				<stop  offset="0.4985" style="stop-color:#734EDF"/>
				<stop  offset="0.8626" style="stop-color:#504BCA"/>
				<stop  offset="1" style="stop-color:#4149C1"/>
			</linearGradient>
			<polygon class="st1" points="-147.34,275.92 300.52,-171.94 748.37,275.92 300.52,723.77 			"/>
		</g>
	</g>
	<g>
		<g>
			<defs>
				<path id="SVGID_7_" d="M190.75,238.33c-0.46,0.44-0.86,0.92-1.21,1.44c-0.75,1.16-1.14,2.52-1.32,3.88
					c-0.2,1.53-0.11,2.98,0.42,4.43c0.62,1.72,1.63,3.32,1.95,5.13c0.23,1.32-0.69,1.73-1.66,2.34c-0.34,0.21-0.72,0.53-1.07,0.91
					c-0.21-0.14-0.43-0.27-0.63-0.41c-1.01-0.72-2.4-1.53-2.97-2.7c-0.57-1.18,0.58-2.73-0.79-3.62c-0.64-0.42-1.45-0.45-2.23-0.47
					c-4.51-0.1-9.03-0.25-13.53-0.25c-1.02,0-2.11,0.02-2.97,0.59c-1.4,0.94-0.61,2.77-1.01,4.15c-0.43,1.46-1.56,2.8-2.47,3.97
					c-1.04,1.33-2.22,2.55-3.37,3.79c-0.37-0.19-0.75-0.34-1.07-0.43c-1.11-0.29-2.11-0.39-2.29-1.73
					c-0.25-1.84,0.23-3.66,0.31-5.49c0.06-1.54-0.28-2.96-0.93-4.35c-0.59-1.25-1.37-2.41-2.43-3.3c-0.48-0.41-1.02-0.74-1.59-1.01
					c-0.23-0.12-1.06-0.44-0.82,0.16c0.12,0.32,0.47,0.66,0.72,0.9c1.02,0.98,1.44,1.77,1.65,2.69c0.31,1.26,0.57,2.41,0.48,3.72
					c-0.09,1.16-0.33,2.32-0.54,3.47c-0.19,1.02-0.36,2.07-0.33,3.12c0.04,1.28,0.47,2.45,1.16,3.51c0.66,1,1.56,1.81,2.53,2.54
					c-0.21-0.16-7.31,9.15-7.87,10.11c-2.53,4.4-3.94,9.4-4.61,14.41c-1.9,14.15,0.26,28.09,4.35,41.57
					c-8.59,3.65-16.3,9.58-20.34,17.8c-1.27,2.57-3.6,5.91-3.21,8.94c0.59,4.63,6.42,3.33,7.42,7.15c0.21,0.84,0.13,1.78,0.59,2.52
					c0.54,0.85,1.68,1.12,2.68,1.04c1-0.1,1.95-0.48,2.96-0.64c2.16-0.35,3.95,0.78,5.68,1.9c2.18,1.41,4.26,2.82,6.85,1.33
					c3.25-1.87,4.11-7.87,5.45-11.05c0.53-1.26,1.09-2.52,1.64-3.77c0.89,1.98,1.79,3.96,2.71,5.91c9.98,21.39,25.1,40.4,43.72,54.9
					c15.14,11.79,33.9,20.1,53.13,22.66c9.7,1.29,19.64,1.1,29.19-1.1c4.64-1.07,9.12-2.7,13.73-3.87c3.87-0.99,7.89-0.68,11.9-0.38
					c2.52,0.19,5.05,0.38,7.52,0.26c5.5-0.29,10.95-1.23,16.29-2.58c3.56-0.91,7.08-2.02,10.51-3.31c7.16-2.69,13.71-6.8,19.7-11.52
					c3.05-2.41,5.97-4.98,8.77-7.66c2.59-2.48,5.62-5.01,7.37-8.17c0.01-0.01,0.01-0.02,0.02-0.04c0.39-0.72,0.69-1.52,0.66-2.33
					c-0.06-1.5-1.22-2.24-2.63-2.04c-2.97,0.44-6.17,2.05-8.69,3.6c-7.01,4.3-14.14,8.53-21.85,11.49
					c-1.66,0.64-3.36,1.23-5.14,1.36c-2.16,0.16-4.47-0.47-5.95-2.12c-2.07-2.31-2.75-6.52-3.42-9.47c-1.58-7-1.81-14.31-0.63-21.4
					c0.61-3.69,1.59-7.31,2.38-10.97c0.34-1.6,2.55-9.72,0.77-10.64c-0.97-0.5-2.09,0.29-2.88,1.05
					c-13.01,12.49-16.05,31.69-28.48,44.72c-2.23,2.35-4.66,4.51-7.26,6.47c-2.67,2.02-4.8,2.99-8.21,3
					c-23.41,0.01-46.53-15.05-60.47-32.97c-8.54-10.98-14.34-24.1-16.65-37.8c1.49,0.79,2.99,1.58,4.46,2.39
					c3.02,1.68,7.39,5.88,11.1,5.34c5.31-0.77,3.56-7.92,7.87-10.28c0.89-0.48,1.87-0.77,2.72-1.31c0.84-0.54,1.57-1.46,1.47-2.47
					c-0.09-0.86-0.74-1.55-1.08-2.35c-1.58-3.61,3.83-6.19,1.43-10.19c-1.56-2.61-5.45-3.81-8.04-5.06
					c-6.22-3-13.28-3.69-20.23-2.82c1.52-15.29,3.76-29.4-6.49-44.02c-3.16-4.51-6.73-8.79-10.97-12.34
					c-0.77-0.64-1.61-1.17-2.49-1.66c0.68-0.95,1.27-1.97,1.59-3.09c0.35-1.22,0.39-2.48,0.05-3.7c-0.28-1-0.76-1.94-1.25-2.87
					c-0.55-1.04-1.13-2.05-1.56-3.15c-0.48-1.23-0.58-2.4-0.66-3.7c-0.06-0.94,0.1-1.81,0.77-3.06c0.16-0.3,0.39-0.73,0.42-1.07
					c0.01-0.22-0.05-0.3-0.17-0.3C191.21,237.94,190.88,238.22,190.75,238.33"/>
			</defs>
			<clipPath id="SVGID_8_">
				<use xlink:href="#SVGID_7_"  style="overflow:visible;"/>
			</clipPath>
			
				<linearGradient id="SVGID_9_" gradientUnits="userSpaceOnUse" x1="-660.8375" y1="-114.7128" x2="-658.8981" y2="-114.7128" gradientTransform="matrix(56.686 -56.686 56.686 56.686 44140.3633 -30543.3457)">
				<stop  offset="0" style="stop-color:#96D7F0"/>
				<stop  offset="1.254580e-03" style="stop-color:#96D7F0"/>
				<stop  offset="0.1994" style="stop-color:#95C2F0"/>
				<stop  offset="0.6072" style="stop-color:#938BF1"/>
				<stop  offset="1" style="stop-color:#9051F1"/>
			</linearGradient>
			<polygon class="st2" points="20.96,339.65 252.13,108.48 483.31,339.65 252.13,570.84 			"/>
		</g>
	</g>
	<g>
		<g>
			<defs>
				<path id="SVGID_10_" d="M315.96,112.84c-4.64,1.07-9.12,2.7-13.75,3.87c-3.87,0.99-7.9,0.68-11.9,0.38
					c-2.53-0.19-5.05-0.38-7.52-0.26c-5.5,0.29-10.95,1.23-16.29,2.58c-3.56,0.91-7.08,2.02-10.51,3.31
					c-7.16,2.69-13.71,6.8-19.7,11.52c-3.05,2.4-5.97,4.98-8.77,7.66c-2.59,2.48-5.62,4.99-7.37,8.17
					c-0.01,0.01-0.01,0.03-0.02,0.04c-0.39,0.73-0.69,1.52-0.66,2.33c0.06,1.5,1.22,2.24,2.63,2.03c2.97-0.43,6.17-2.05,8.69-3.6
					c7.01-4.3,14.14-8.53,21.85-11.49c1.66-0.64,3.36-1.23,5.14-1.36c2.16-0.16,4.47,0.48,5.95,2.12c2.07,2.31,2.75,6.52,3.42,9.48
					c1.58,7,1.8,14.31,0.63,21.4c-0.61,3.69-1.59,7.31-2.38,10.96c-0.34,1.6-2.55,9.71-0.76,10.64c0.97,0.5,2.09-0.29,2.88-1.05
					c13.01-12.49,16.05-31.69,28.47-44.72c2.24-2.35,4.66-4.51,7.26-6.47c2.67-2.02,4.8-2.99,8.21-3
					c23.41-0.01,46.53,15.06,60.47,32.97c8.54,10.98,14.34,24.1,16.65,37.8c-1.49-0.79-3-1.58-4.46-2.39
					c-3.01-1.68-7.39-5.88-11.1-5.34c-5.31,0.77-3.56,7.92-7.87,10.27c-0.89,0.48-1.87,0.77-2.72,1.31
					c-0.85,0.54-1.57,1.46-1.47,2.47c0.09,0.86,0.74,1.55,1.08,2.35c1.58,3.61-3.83,6.19-1.43,10.19c1.57,2.61,5.46,3.81,8.05,5.06
					c6.22,3,13.28,3.69,20.23,2.82c-1.52,15.29-3.76,29.4,6.49,44.02c3.16,4.51,6.73,8.79,10.97,12.34
					c0.77,0.64,1.61,1.17,2.49,1.66c-0.68,0.95-1.27,1.97-1.59,3.09c-0.35,1.22-0.39,2.48-0.05,3.7c0.28,1,0.76,1.94,1.25,2.87
					c0.55,1.04,1.13,2.06,1.56,3.14c0.48,1.24,0.58,2.4,0.66,3.7c0.06,0.94-0.1,1.81-0.77,3.06c-0.16,0.3-0.39,0.73-0.42,1.07
					c-0.04,0.64,0.64,0.09,0.83-0.1c0.46-0.44,0.88-0.91,1.21-1.44c0.75-1.16,1.14-2.52,1.32-3.87c0.2-1.53,0.11-2.98-0.42-4.43
					c-0.62-1.72-1.63-3.32-1.95-5.13c-0.23-1.32,0.69-1.73,1.66-2.34c0.34-0.21,0.72-0.53,1.07-0.91c0.21,0.14,0.43,0.27,0.63,0.41
					c1.01,0.72,2.4,1.53,2.97,2.7c0.58,1.18-0.58,2.73,0.79,3.62c0.64,0.42,1.46,0.45,2.23,0.47c4.51,0.1,9.02,0.25,13.53,0.25
					c1.02,0,2.11-0.02,2.97-0.6c1.4-0.94,0.61-2.77,1.01-4.15c0.43-1.46,1.56-2.8,2.48-3.97c1.04-1.34,2.22-2.55,3.37-3.79
					c0.37,0.19,0.75,0.35,1.07,0.43c1.11,0.29,2.11,0.39,2.29,1.73c0.25,1.84-0.23,3.66-0.31,5.49c-0.06,1.55,0.28,2.96,0.93,4.35
					c0.59,1.24,1.37,2.41,2.43,3.3c0.48,0.41,1.02,0.74,1.59,1.01c0.23,0.12,1.06,0.44,0.82-0.16c-0.12-0.32-0.47-0.66-0.72-0.9
					c-1.02-0.98-1.44-1.77-1.65-2.69c-0.31-1.27-0.58-2.41-0.48-3.72c0.09-1.16,0.32-2.32,0.53-3.47c0.19-1.02,0.36-2.07,0.33-3.12
					c-0.04-1.28-0.47-2.45-1.16-3.51c-0.66-1-1.56-1.81-2.53-2.53c0.21,0.16,7.31-9.15,7.87-10.11c2.53-4.4,3.94-9.4,4.61-14.41
					c1.9-14.15-0.26-28.09-4.35-41.57c8.59-3.65,16.3-9.57,20.34-17.8c1.27-2.57,3.6-5.91,3.21-8.94c-0.59-4.63-6.42-3.33-7.42-7.15
					c-0.21-0.84-0.13-1.78-0.59-2.52c-0.54-0.85-1.68-1.12-2.68-1.04c-1,0.1-1.95,0.48-2.95,0.64c-2.16,0.35-3.95-0.78-5.69-1.9
					c-2.17-1.41-4.26-2.82-6.84-1.33c-3.27,1.87-4.11,7.87-5.45,11.05c-0.53,1.26-1.09,2.52-1.64,3.77
					c-0.89-1.98-1.79-3.96-2.71-5.91c-9.98-21.39-25.1-40.4-43.72-54.9c-15.14-11.78-33.9-20.1-53.14-22.66
					c-3.94-0.52-7.92-0.8-11.89-0.8C327.45,110.95,321.64,111.54,315.96,112.84"/>
			</defs>
			<clipPath id="SVGID_11_">
				<use xlink:href="#SVGID_10_"  style="overflow:visible;"/>
			</clipPath>
			
				<linearGradient id="SVGID_12_" gradientUnits="userSpaceOnUse" x1="-659.5431" y1="-114.867" x2="-657.6037" y2="-114.867" gradientTransform="matrix(56.686 -56.686 56.686 56.686 44212.0508 -30627.8516)">
				<stop  offset="0" style="stop-color:#96D7F0"/>
				<stop  offset="1.254580e-03" style="stop-color:#96D7F0"/>
				<stop  offset="0.1994" style="stop-color:#95C2F0"/>
				<stop  offset="0.6072" style="stop-color:#938BF1"/>
				<stop  offset="1" style="stop-color:#9051F1"/>
			</linearGradient>
			<polygon class="st3" points="117.79,212.59 348.9,-18.51 580.01,212.59 348.9,443.7 			"/>
		</g>
	</g>
</g>
</svg>
