<svg id="Layer_1" data-name="Layer 1" xmlns="http://www.w3.org/2000/svg" viewBox="0 0 100 100"><defs><style>.cls-1,.cls-2{fill:#5fbe7a;}.cls-1{stroke:#231f20;stroke-miterlimit:10;stroke-width:1.9843px;}</style></defs><title>iconeSECONDSVG</title><rect class="cls-1" x="40.4168" y="34.8463" width="11.807" height="10.7483"/><path class="cls-1" d="M26.6443,24.1723H22.4782c-1.6668,0-1.6668,0-1.6668,1.1744,0,10.1963.0123,20.3926-.0261,30.5888-.0028.7291.5939,1.0341,1.4765,1.0361q8.34.0192,16.6807.0056a1.3472,1.3472,0,0,0,1.4711-1.1791c.0094-1.6058.0034-3.2116.0035-4.8175,0-2.3853.01-4.7708-.01-7.156-.003-.3763.1335-.5158.6973-.5131q5.2083.0243,10.4171.0016c.5056-.0018.6881.0925.6867.4726-.0166,4.5368.08,9.0752-.07,13.61a5.5514,5.5514,0,0,1-.9926,3.751A6.347,6.347,0,0,1,49.5988,62.54a7.8148,7.8148,0,0,1-3.6776,1.1213c-.9041.0427-1.8051.1686-2.7077.17q-13.4829.02-26.966-.0073a12.35,12.35,0,0,1-2.1142-.3411,7.3811,7.3811,0,0,1-.978-.2289,5.5769,5.5769,0,0,1-3.3858-2.59,7.7638,7.7638,0,0,1-.7378-3.9872Q9.0287,40.75,9.0291,24.824c0-.9243.1374-.8349-1.1494-.8381-1.4065-.0034-2.8131.0015-4.22-.0031-.2234-.0008-.4466-.0326-.766-.0576.3305-.3523.5762-.6354.8513-.9034q1.0831-1.0548,2.1882-2.0985c.5819-.5512,1.1908-1.0882,1.7608-1.6453,1.0956-1.0708,2.1578-2.1588,3.2619-3.225.6517-.6293,1.3621-1.2278,2.0372-1.8451q.8522-.7791,1.6826-1.57c.318-.3017.4931-.21.754.0657.9243.9767,1.9008,1.9285,2.8379,2.8993.8768.9084,1.7091,1.8386,2.597,2.7413.9269.9425,1.911,1.8565,2.8428,2.7966.6429.6486,1.233,1.3235,1.86,1.9805C25.8716,23.44,26.2053,23.7455,26.6443,24.1723Z"/><path class="cls-1" d="M66.7577,77.8323H55.1337v-.8q0-13.9089,0-27.818c0-.9026.0007-.9036.88-.9036,9.3386,0,18.6773-.0207,28.0156.0294a1.3461,1.3461,0,0,0,1.4321-1.4919c.0155-.6808-.038-1.3654.0135-2.0426a1.4486,1.4486,0,0,0-1.529-1.5029q-13.9419.0375-27.8839.0154c-.9281,0-.9286-.0006-.9287-.9213,0-2.2633.0157-4.5267-.0115-6.79-.0066-.5511.1076-.7623.7182-.7614,11.492.0183,22.9841-.0209,34.4756.0543A7.9917,7.9917,0,0,1,94.78,36.2879a5.1136,5.1136,0,0,1,2.0173,3.1528,9.46,9.46,0,0,1,.2748,2.4847c.0306,2.966.0633,5.9339-.0155,8.8981a6.3112,6.3112,0,0,1-1.0508,2.9724c-.825,1.3981-2.2168,1.8995-3.5934,2.3991a6.2951,6.2951,0,0,1-2.0961.2988q-11.371.03-22.7421-.0041c-.6858-.0024-.8338.1955-.8314.8495.024,6.526.0146,13.052.0146,19.578Z"/><rect class="cls-2" x="41.3506" y="41.2322" width="10" height="4.6157"/></svg>