<svg xmlns="http://www.w3.org/2000/svg" xmlns:xlink="http://www.w3.org/1999/xlink" viewBox="0 0 100 100"><defs><style>.cls-1{isolation:isolate;}.cls-2,.cls-4{stroke:#231f20;stroke-miterlimit:10;}.cls-2{stroke-width:1.3119px;fill:url(#Lemon);}.cls-3,.cls-5{mix-blend-mode:multiply;}.cls-3{fill:url(#Banana);}.cls-4{stroke-width:1.8366px;fill:url(#Lemon-2);}.cls-5{fill:url(#linear-gradient);}.cls-6{fill:url(#linear-gradient-2);}.cls-7{fill:url(#linear-gradient-3);}.cls-10,.cls-12,.cls-8,.cls-9{mix-blend-mode:screen;}.cls-8{fill:url(#radial-gradient);}.cls-9{fill:url(#radial-gradient-2);}.cls-10{fill:url(#radial-gradient-3);}.cls-11{opacity:0.48;}.cls-12{fill:#fff;}</style><linearGradient id="Lemon" x1="1.2487" y1="44.3744" x2="79.4146" y2="44.3744" gradientUnits="userSpaceOnUse"><stop offset="0.0225" stop-color="#f8d73d"/><stop offset="0.2978" stop-color="#fbe93c"/><stop offset="0.3792" stop-color="#fbe755"/><stop offset="0.5562" stop-color="#fbe487"/><stop offset="0.5927" stop-color="#fbe58a"/><stop offset="0.6239" stop-color="#fce895"/><stop offset="0.653" stop-color="#fceda6"/><stop offset="0.6807" stop-color="#fef3bf"/><stop offset="0.7075" stop-color="#fffcdf"/><stop offset="0.9551" stop-color="#feec98"/></linearGradient><linearGradient id="Banana" x1="40.3276" y1="24.4192" x2="40.3276" y2="64.3374" gradientUnits="userSpaceOnUse"><stop offset="0" stop-color="#fff9b8"/><stop offset="0.073" stop-color="#f8c957"/><stop offset="0.0989" stop-color="#f9cd5f"/><stop offset="0.1399" stop-color="#fad876"/><stop offset="0.1904" stop-color="#fdeb9b"/><stop offset="0.2247" stop-color="#fff9b8"/><stop offset="0.3202" stop-color="#fad684"/><stop offset="0.4045" stop-color="#d3b565"/><stop offset="0.4609" stop-color="#dbb962"/><stop offset="0.5477" stop-color="#f0c55a"/><stop offset="0.573" stop-color="#f8c957"/><stop offset="0.9038" stop-color="#e0b84f"/><stop offset="0.9157" stop-color="#dfb74f"/><stop offset="1" stop-color="#f8c957"/></linearGradient><linearGradient id="Lemon-2" x1="55.3563" y1="72.6133" x2="91.9155" y2="72.6133" xlink:href="#Lemon"/><linearGradient id="linear-gradient" x1="73.6325" y1="68.9263" x2="73.6325" y2="76.3005" gradientUnits="userSpaceOnUse"><stop offset="0" stop-color="#5a7593"/><stop offset="1" stop-color="#d8cbe4"/></linearGradient><linearGradient id="linear-gradient-2" x1="30.8272" y1="28.4752" x2="41.791" y2="55.3864" gradientUnits="userSpaceOnUse"><stop offset="0" stop-color="#fff" stop-opacity="0"/><stop offset="1" stop-color="#fff"/></linearGradient><linearGradient id="linear-gradient-3" x1="66.0159" y1="66.0504" x2="71.747" y2="75.7683" xlink:href="#linear-gradient-2"/><radialGradient id="radial-gradient" cx="73.6326" cy="72.6134" r="5.7246" gradientTransform="translate(175.3753 70.224) rotate(135) scale(1 0.9675)" gradientUnits="userSpaceOnUse"><stop offset="0.059" stop-color="#f1f9fa"/><stop offset="0.1442" stop-color="#fafdfd"/><stop offset="0.2477" stop-color="#fff"/><stop offset="0.6885" stop-color="#1593d1"/><stop offset="0.775" stop-color="#106d9b"/><stop offset="0.9727" stop-color="#030e14"/><stop offset="1" stop-color="#010101"/></radialGradient><radialGradient id="radial-gradient-2" cx="2329.7777" cy="362.5951" r="9.4696" gradientTransform="matrix(-0.9787, 0.0026, -0.0003, -0.2614, 2353.8873, 161.235)" gradientUnits="userSpaceOnUse"><stop offset="0.0051" stop-color="#fff"/><stop offset="0.059" stop-color="#f1f9fa"/><stop offset="0.0984" stop-color="#bde1f0"/><stop offset="0.1426" stop-color="#8ac9e7"/><stop offset="0.1863" stop-color="#60b6df"/><stop offset="0.2284" stop-color="#3fa7d9"/><stop offset="0.2687" stop-color="#289cd5"/><stop offset="0.3062" stop-color="#1a95d2"/><stop offset="0.3385" stop-color="#1593d1"/><stop offset="0.5222" stop-color="#106d9b"/><stop offset="0.9421" stop-color="#030e14"/><stop offset="1" stop-color="#010101"/></radialGradient><radialGradient id="radial-gradient-3" cx="606.4936" cy="64.9866" r="9.4696" gradientTransform="matrix(0.0026, 0.9787, -0.2614, 0.0003, 89.0163, -520.9797)" xlink:href="#radial-gradient-2"/></defs><title>iconeSECONDSVG</title><g class="cls-1"><g id="Layer_1" data-name="Layer 1"><path class="cls-2" d="M79.4142,44.3744h0A44.8708,44.8708,0,0,1,40.3316,5.2917v0A44.8709,44.8709,0,0,1,1.2488,44.3743h0A44.871,44.871,0,0,1,40.3316,83.457v0A44.8707,44.8707,0,0,1,79.4142,44.3744Z"/><path class="cls-3" d="M60.2866,44.3733a50.7778,50.7778,0,0,0-19.954,19.9641,50.7013,50.7013,0,0,0-12.9572-15.3,49.4744,49.4744,0,0,0-7.0069-4.6646A50.7781,50.7781,0,0,0,40.3326,24.4192,50.5346,50.5346,0,0,0,51.8644,38.5425,49.724,49.724,0,0,0,60.2866,44.3733Z"/><path class="cls-4" d="M91.9155,72.6133a20.9818,20.9818,0,0,0-18.2795,18.28,20.9607,20.9607,0,0,0-5.99-12.2893A22.21,22.21,0,0,0,65.453,76.7a20.8945,20.8945,0,0,0-10.0967-4.0865,20.9817,20.9817,0,0,0,18.28-18.28,20.9994,20.9994,0,0,0,18.28,18.28Z"/><path class="cls-5" d="M73.6326,76.3005a26.9393,26.9393,0,0,0-3.6871-3.6871,26.9337,26.9337,0,0,0,3.6871-3.6871,27.0345,27.0345,0,0,0,3.687,3.6871A27.04,27.04,0,0,0,73.6326,76.3005Z"/><path class="cls-6" d="M51.8644,38.5425q-7.55,2.6315-14.9007,5.8607c-3.2393,1.4353-6.4387,2.97-9.5883,4.6347a49.4744,49.4744,0,0,0-7.0069-4.6646A50.7781,50.7781,0,0,0,40.3326,24.4192,50.5346,50.5346,0,0,0,51.8644,38.5425Z"/><path class="cls-7" d="M79.4168,66.4038c-1.7243,1.0864-3.4186,2.2027-5.0832,3.3688A99.1887,99.1887,0,0,0,65.453,76.7a20.8945,20.8945,0,0,0-10.0967-4.0865,20.9817,20.9817,0,0,0,18.28-18.28A20.9259,20.9259,0,0,0,79.4168,66.4038Z"/><circle class="cls-8" cx="73.6326" cy="72.6134" r="5.7657"/><path class="cls-9" d="M73.6326,74.1432c-8.0072,0-14.4983-.6849-14.4983-1.53s6.4911-1.53,14.4983-1.53,14.4983.685,14.4983,1.53S81.64,74.1432,73.6326,74.1432Z"/><path class="cls-10" d="M75.1623,72.6134c0,8.0072-.6849,14.4983-1.53,14.4983s-1.53-6.4911-1.53-14.4983.685-14.4983,1.53-14.4983S75.1623,64.6062,75.1623,72.6134Z"/><g class="cls-11"><circle class="cls-12" cx="36.1165" cy="44.3744" r="12.044" transform="translate(-11.4383 76.1869) rotate(-84.6389)"/><path class="cls-12" d="M34.8345,46.1106C23.118,37.46,14.1938,29.67,14.9018,28.711s10.78,5.2765,22.4966,13.9271,20.6408,16.4408,19.9328,17.4S46.5511,54.7613,34.8345,46.1106Z"/><path class="cls-12" d="M37.8528,45.6563c-8.6507,11.7166-16.4408,20.6407-17.4,19.9328S25.73,54.809,34.38,43.0925,50.8209,22.4518,51.78,23.16,46.5033,33.94,37.8528,45.6563Z"/><path class="cls-12" d="M36.5921,47.5344c-21.3242,3.21-38.8238,4.3974-39.0865,2.6521s16.811-5.7621,38.1352-8.9721,38.8238-4.3973,39.0865-2.6521S57.9164,44.3245,36.5921,47.5344Z"/><path class="cls-12" d="M39.2765,43.8987c3.21,21.3242,4.3973,38.8239,2.6521,39.0866S36.1664,66.1742,32.9565,44.85,28.5591,6.0262,30.3043,5.7635,36.0665,22.5745,39.2765,43.8987Z"/></g></g></g></svg>