<svg xmlns="http://www.w3.org/2000/svg" xmlns:xlink="http://www.w3.org/1999/xlink" viewBox="0 0 604.9193 604.9193"><defs><style>.cls-1{fill:url(#linear-gradient);}.cls-2{fill:url(#linear-gradient-2);}.cls-3{fill:url(#linear-gradient-3);}.cls-4{fill:url(#linear-gradient-4);}.cls-5{fill:url(#linear-gradient-5);}.cls-6{fill:url(#linear-gradient-6);}.cls-7{fill:url(#linear-gradient-7);}.cls-8{isolation:isolate;}.cls-9{opacity:0.96;fill:url(#Sky_3);}.cls-10{opacity:0.51;mix-blend-mode:soft-light;fill:url(#Autumn_Yellow);}.cls-11{fill:url(#linear-gradient-8);}.cls-12{fill:url(#linear-gradient-9);}.cls-13{fill:url(#linear-gradient-10);}.cls-14{fill:#be1e2d;}.cls-15{fill:url(#linear-gradient-11);}.cls-16{fill:url(#linear-gradient-12);}.cls-17{fill:url(#radial-gradient);}.cls-18{fill:url(#linear-gradient-13);}.cls-19{mask:url(#mask);}.cls-20{fill:#c0e6ed;}.cls-21{mask:url(#mask-2);}.cls-22{fill:#232463;}.cls-23{fill:url(#linear-gradient-14);}.cls-24{mask:url(#mask-3);}.cls-25{mask:url(#mask-4);}.cls-26{fill:url(#linear-gradient-15);}.cls-27{mask:url(#mask-5);}.cls-28{fill:url(#linear-gradient-16);}.cls-29{fill:url(#radial-gradient-2);}.cls-30{mask:url(#mask-6);}.cls-31{fill:#f0dceb;}.cls-32{mask:url(#mask-7);}.cls-33{fill:url(#linear-gradient-17);}</style><linearGradient id="linear-gradient" x1="4552.8023" y1="-80103.3187" x2="2941.1493" y2="-82894.7509" gradientTransform="matrix(0.072, 0, 0, -0.072, 225.2012, -5599.8822)" gradientUnits="userSpaceOnUse"><stop offset="0" stop-color="#fff"/><stop offset="1" stop-color="#fff" stop-opacity="0"/></linearGradient><linearGradient id="linear-gradient-2" x1="7175.4963" y1="-86345.8396" x2="1969.0069" y2="-84005.7875" xlink:href="#linear-gradient"/><linearGradient id="linear-gradient-3" x1="-3054.7416" y1="-78067.7375" x2="-1465.6431" y2="-83998.3244" xlink:href="#linear-gradient"/><linearGradient id="linear-gradient-4" x1="11807.1555" y1="-91301.1" x2="-1721.3758" y2="-83490.3988" xlink:href="#linear-gradient"/><linearGradient id="linear-gradient-5" x1="-2141.2584" y1="-78795.1297" x2="-242.0869" y2="-85882.9982" xlink:href="#linear-gradient"/><linearGradient id="linear-gradient-6" x1="1073.2968" y1="-77421.6266" x2="1073.2968" y2="-80462.7823" xlink:href="#linear-gradient"/><linearGradient id="linear-gradient-7" x1="1073.2691" y1="-76712.8458" x2="1073.2691" y2="-78761.331" xlink:href="#linear-gradient"/><linearGradient id="Sky_3" x1="2540.7329" y1="-6432.4957" x2="3145.6287" y2="-6432.4957" gradientTransform="translate(6911.9764 2705.579) rotate(-93.8651)" gradientUnits="userSpaceOnUse"><stop offset="0.0225" stop-color="#74524e"/><stop offset="0.427" stop-color="#f0713c"/><stop offset="0.736" stop-color="#f79248"/><stop offset="1" stop-color="#ffd357"/></linearGradient><linearGradient id="Autumn_Yellow" x1="10608.0247" y1="-2130.5196" x2="10808.2276" y2="-2477.2812" gradientTransform="translate(8424.9385 -7149.8877) rotate(149.9661)" gradientUnits="userSpaceOnUse"><stop offset="0" stop-color="#fbf3de"/><stop offset="0" stop-color="#fcedc1"/><stop offset="0" stop-color="#fee18a"/><stop offset="0.5506" stop-color="#ffce09"/><stop offset="0.6275" stop-color="#f9c80f"/><stop offset="1" stop-color="#e2b126"/></linearGradient><linearGradient id="linear-gradient-8" x1="337.0613" y1="5.3145" x2="337.0613" y2="23.3168" gradientUnits="userSpaceOnUse"><stop offset="0" stop-color="#f1563c"/><stop offset="0.4901" stop-color="#de3b34"/><stop offset="1" stop-color="#ce242c"/></linearGradient><linearGradient id="linear-gradient-9" x1="267.89" y1="5.3145" x2="267.89" y2="23.3168" xlink:href="#linear-gradient-8"/><linearGradient id="linear-gradient-10" x1="302.4757" y1="16.3812" x2="302.4757" y2="30.0793" gradientUnits="userSpaceOnUse"><stop offset="0.0859" stop-color="#f1563c"/><stop offset="0.5339" stop-color="#de3b34"/><stop offset="1" stop-color="#ce242c"/></linearGradient><linearGradient id="linear-gradient-11" x1="1073.283" y1="-78173.9632" x2="1073.283" y2="-78876.9258" gradientTransform="matrix(0.072, 0, 0, -0.072, 225.2012, -5599.8822)" gradientUnits="userSpaceOnUse"><stop offset="0" stop-color="#f7977a"/><stop offset="0.0342" stop-color="#f68d71"/><stop offset="0.2407" stop-color="#f1563c"/><stop offset="0.6128" stop-color="#de3b34"/><stop offset="1" stop-color="#ce242c"/></linearGradient><linearGradient id="linear-gradient-12" x1="1073.2831" y1="-79673.2901" x2="1073.2831" y2="-80687.8211" gradientTransform="matrix(0.072, 0, 0, -0.072, 225.2012, -5599.8822)" gradientUnits="userSpaceOnUse"><stop offset="0" stop-color="#f7977a"/><stop offset="0.0337" stop-color="#f68d71"/><stop offset="0.2374" stop-color="#f1563c"/><stop offset="0.4377" stop-color="#ec4f3a"/><stop offset="0.7198" stop-color="#e03d34"/><stop offset="1" stop-color="#ce242c"/></linearGradient><radialGradient id="radial-gradient" cx="1073.2695" cy="-82530.2473" r="2350.3804" gradientTransform="matrix(0.072, 0, 0, -0.072, 225.2012, -5599.8822)" gradientUnits="userSpaceOnUse"><stop offset="0" stop-color="#f7977a"/><stop offset="0" stop-color="#f68d71"/><stop offset="0" stop-color="#f1563c"/><stop offset="0.4901" stop-color="#de3b34"/><stop offset="1" stop-color="#ce242c"/></radialGradient><linearGradient id="linear-gradient-13" x1="2338.1064" y1="-84182.2592" x2="2794.2789" y2="-81676.9352" gradientTransform="matrix(0.072, 0, 0, -0.072, 225.2012, -5599.8822)" gradientUnits="userSpaceOnUse"><stop offset="0" stop-color="#2d479d"/><stop offset="1" stop-color="#7ed2ea"/></linearGradient><mask id="mask" x="248.8359" y="341.5831" width="347.9556" height="102.9302" maskUnits="userSpaceOnUse"><g id="id4"><rect class="cls-1" x="248.8359" y="341.5831" width="347.9556" height="102.9302"/></g></mask><mask id="mask-2" x="202.2962" y="362.7653" width="377.732" height="193.2845" maskUnits="userSpaceOnUse"><g id="id6"><rect class="cls-2" x="202.2962" y="362.7653" width="377.732" height="193.2845"/></g></mask><linearGradient id="linear-gradient-14" x1="574.9447" y1="-86029.651" x2="1105.5121" y2="-82237.3503" xlink:href="#linear-gradient-13"/><mask id="mask-3" x="8.1596" y="324.6502" width="216.6753" height="222.975" maskUnits="userSpaceOnUse"><g id="id8"><rect class="cls-3" x="8.1596" y="324.6502" width="216.6753" height="222.975"/></g></mask><mask id="mask-4" x="52.3014" y="439.0812" width="469.3272" height="159.1213" maskUnits="userSpaceOnUse"><g id="id10"><rect class="cls-4" x="52.3014" y="439.0812" width="469.3272" height="159.1213"/></g></mask><linearGradient id="linear-gradient-15" x1="1073.0337" y1="-86933.1614" x2="1073.0337" y2="-84284.0372" gradientTransform="matrix(0.072, 0, 0, -0.072, 225.2012, -5599.8822)" gradientUnits="userSpaceOnUse"><stop offset="0.0225" stop-color="#583835"/><stop offset="0.4505" stop-color="#d7572b"/><stop offset="0.7797" stop-color="#ec7c31"/><stop offset="0.8364" stop-color="#ee9033"/><stop offset="0.9415" stop-color="#f2af37"/><stop offset="1" stop-color="#f3bb39"/></linearGradient><mask id="mask-5" x="83.2209" y="473.2383" width="224.6191" height="129.5445" maskUnits="userSpaceOnUse"><g id="id12"><rect class="cls-5" x="83.2209" y="473.2383" width="224.6191" height="129.5445"/></g></mask><linearGradient id="linear-gradient-16" x1="274.5748" y1="590.6835" x2="139.2497" y2="455.3584" gradientUnits="userSpaceOnUse"><stop offset="0.0225" stop-color="#583835"/><stop offset="0.2755" stop-color="#d7572b"/><stop offset="0.2989" stop-color="#e0682e"/><stop offset="0.3281" stop-color="#e77330"/><stop offset="0.3692" stop-color="#eb7a31"/><stop offset="0.4834" stop-color="#ec7c31"/><stop offset="0.5387" stop-color="#f3bb39"/></linearGradient><radialGradient id="radial-gradient-2" cx="1073.2826" cy="-79275.1076" r="1234.8145" gradientTransform="matrix(0.072, 0, 0, -0.072, 225.2012, -5599.8822)" gradientUnits="userSpaceOnUse"><stop offset="0" stop-color="#f7977a"/><stop offset="0.027" stop-color="#f68d71"/><stop offset="0.1902" stop-color="#f1563c"/><stop offset="0.5871" stop-color="#de3b34"/><stop offset="1" stop-color="#ce242c"/></radialGradient><mask id="mask-6" x="85.8362" y="136.2613" width="433.2848" height="42.1408" maskUnits="userSpaceOnUse"><g id="id16"><rect class="cls-6" x="85.8362" y="136.2613" width="433.2848" height="42.1408"/></g></mask><mask id="mask-7" x="164.7995" y="28.3118" width="275.3542" height="29.7384" maskUnits="userSpaceOnUse"><g id="id18"><rect class="cls-7" x="164.7995" y="28.3118" width="275.3542" height="29.7384"/></g></mask><linearGradient id="linear-gradient-17" x1="359.0858" y1="337.5931" x2="468.8289" y2="337.5931" xlink:href="#linear-gradient-8"/></defs><title>EB LOGO POST FEEDBACK</title><g class="cls-8"><g id="Layer_3" data-name="Layer 3"><circle class="cls-9" cx="302.4597" cy="302.4597" r="302.4479"/><circle class="cls-10" cx="307.7293" cy="204.2185" r="200.1695"/><polygon class="cls-11" points="351.386 5.314 351.386 23.317 337.061 23.317 322.736 23.317 322.736 5.314 351.386 5.314"/><polygon class="cls-12" points="253.565 5.314 253.565 23.317 267.89 23.317 282.215 23.317 282.215 5.314 253.565 5.314"/><polygon class="cls-13" points="364.866 16.381 364.866 30.079 240.086 30.079 240.086 16.381 364.866 16.381"/><path class="cls-14" d="M578.568,180.4689s-7.81,59-76.22,59.3889v.008H103.2819c-69.0425,0-76.8945-59.3989-76.8945-59.3989,12.6219,17.6292,33.2654,25.9619,56.4745,25.9619H103.284V193.4359H502.35v12.2967l15.2852.8379c23.1751,1.2687,48.3152-8.4745,60.9352-26.1037Z"/><path class="cls-14" d="M124.478,59.0456s6.5713,41.6681,55.5768,41.6681H428.2061V100.64c45.9891-1.8314,52.2692-41.5943,52.2692-41.5943-8.7458,12.215-23.05,18.4671-39.1306,18.4671H428.2061V70.9334H180.0548v6.9982H163.6066c-16.0791,0-30.3848-6.671-39.13-18.886Z"/><path class="cls-15" d="M159.8441,60.0152c-21.7507,9.41-35.3661-.97-35.3661-.97a48.1275,48.1275,0,0,0,39.1306,20.2106H441.3467a48.1272,48.1272,0,0,0,39.13-20.2106s-13.6154,10.3816-35.3661.9695-71.1093-31.3722-71.1093-31.3722H230.9534s-49.3586,21.96-71.1093,31.3722Z"/><path class="cls-16" d="M522.0935,209.6407a69.46,69.46,0,0,0,56.4745-29.17s-19.65,14.9839-51.04,1.4c-31.3922-13.5835-102.6292-45.2769-102.6292-45.2769H180.0567S108.82,168.2879,77.4276,181.8713c-31.39,13.5835-51.04-1.4-51.04-1.4a69.4591,69.4591,0,0,0,56.4745,29.17H522.0935Z"/><path class="cls-17" d="M103.2819,209.6407h32.8425v48.4448H468.8289V209.6407h32.8425V474.95H468.8289V346.8358H359.0858V449.8539H326.2433V278.2383H259.5189V403.8409H226.6744V278.2384h-90.55V403.8409H103.282v-194.2Zm365.547,68.5956H359.0858v48.4468H468.8289Z"/><path class="cls-18" d="M596.4605,372.3948c-31.3423,133.3568-151.0641,232.64-293.9829,232.64a302.3233,302.3233,0,0,1-78.67-10.3737c-51.37-81.2135-4.0158-189.7874,27.2946-231.5631,165.7567,84.8861,231.1405-87.4935,345.36,9.2964Z"/><g class="cls-19"><path class="cls-20" d="M257.6915,366.3462c160.917,77.05,226.0773-89.4465,338.769,6.0466,0,0-41.9813-29.7164-94.7891,10.9941-52.8058,40.7125-84.0384,60.7894-84.0384,60.7894s-191.2918-40.7125-166.1957-69.7127a95.0007,95.0007,0,0,0,6.2542-8.1194Z"/></g><g class="cls-21"><path class="cls-22" d="M579.6951,422.97A303.175,303.175,0,0,1,468.6473,555.2259c-43.4376,2.0069-91.06-2.29-131.6295-9.57-54.21-9.7272-99.3714-30.2411-134.39-59.1915C208.89,435.0355,232.7469,387.59,251.1,363.1c62.4014,31.9567,110.575,27.4482,152.4865,14.5709C471.7754,424.7,528.186,468.4645,579.6952,422.9722Z"/></g><path class="cls-23" d="M8.4928,372.3868C258.8306,202.1118,460.3863,555.1859,579.7071,422.96,533.303,530.0818,426.652,605.0353,302.4776,605.0353c-142.9227,0-262.6464-99.2876-293.9848-232.6484Z"/><g class="cls-24"><path class="cls-20" d="M8.4928,372.3868C80.9686,323.09,149.3468,317.7,212.8335,331.66c-83.0649-10.91-121.2379,120.0766,11.67,148.67,0,0-14.531,57.4578-17.95,57.9925-2.0129.3152-45.1672,5.095-81.68,8.9692A302.2332,302.2332,0,0,1,8.4928,372.3848Z"/></g><g class="cls-25"><path class="cls-22" d="M521.2955,511.136a302.003,302.003,0,0,1-131.9566,81.2055c-37.8877,5.8511-78.2551,6.683-113.0686,4.2491a327.6063,327.6063,0,0,1-149.4821-47.9161,303.7676,303.7676,0,0,1-74.1536-75.9808c87.3241-59.5067,163.8-28.4038,240.7422,9.53,68.8869,33.9617,155.21,74.3908,227.9207,28.9125Z"/></g><path class="cls-26" d="M521.3673,511.0941a301.9849,301.9849,0,0,1-437.8153-.038c78.4606-66.4929,149.4821-30.5264,223.9549,1.0254,66.0381,27.9788,149.8432,56.251,213.86-.9875Z"/><g class="cls-27"><path class="cls-28" d="M262.8064,602.4518A301.252,301.252,0,0,1,83.552,511.0562c78.4606-66.493,149.4821-30.5264,223.9549,1.0253-103.0342-43.8824-134.0214,73.1759-44.7084,90.3583Z"/></g><path class="cls-29" d="M253.7455,79.2562h20.1508v57.3382H253.7455Zm-73.6888,0h32.8425v57.3382H180.0567Zm244.8417,0H392.0559v57.3382h32.8425Zm-73.6887,0H331.059v57.3382H351.21Z"/><g class="cls-30"><path class="cls-31" d="M140.13,160.0169h82.6719c-1.955.8558-3.0044,1.7575-3.0044,2.6891,0,5.5459,37.018,10.0385,82.68,10.0385s82.68-4.4946,82.68-10.0385c0-.9316-1.0494-1.8333-3.0044-2.6891H464.825s24.4539,8.2051,53.9629,18.0541c-34.1772-14.91-93.89-41.4766-93.89-41.4766H180.0607s-59.7122,26.5665-93.8894,41.4766c29.507-9.849,53.9629-18.0541,53.9629-18.0541Z"/></g><g class="cls-32"><path class="cls-31" d="M230.9534,43.4233h20.3243c-3.9041.9416-6.1045,2.007-6.1045,3.1341,0,3.85,25.6568,6.97,57.3044,6.97,31.6495,0,57.3044-3.122,57.3044-6.97,0-1.1272-2.2-2.19-6.1046-3.1341h43.4815s19.9513,6.705,42.6616,14.2937C416.2784,47.4531,374,28.6429,374,28.6429H230.9554s-42.2785,18.81-65.8207,29.0741c22.7123-7.5887,42.6636-14.2937,42.6636-14.2937h23.1551Z"/></g><rect class="cls-33" x="359.0858" y="326.6831" width="109.7431" height="21.82"/></g></g></svg>