<svg id="Layer_1" data-name="Layer 1" xmlns="http://www.w3.org/2000/svg" xmlns:xlink="http://www.w3.org/1999/xlink" viewBox="0 0 121 139"><defs><style>.cls-1{fill:#002d74;}.cls-2{fill:url(#linear-gradient);}.cls-3{fill:url(#linear-gradient-2);}</style><linearGradient id="linear-gradient" x1="120.4096" y1="107.7972" x2="75.3557" y2="81.7854" gradientTransform="matrix(1, 0, 0, -1, 0, 142.5567)" gradientUnits="userSpaceOnUse"><stop offset="0" stop-color="#002d74"/><stop offset="0.5328" stop-color="#002c72"/><stop offset="0.7247" stop-color="#00286b"/><stop offset="0.8615" stop-color="#002160"/><stop offset="0.9713" stop-color="#00174f"/><stop offset="1" stop-color="#001449"/></linearGradient><linearGradient id="linear-gradient-2" x1="0.251" y1="38.4506" x2="45.3048" y2="64.4624" xlink:href="#linear-gradient"/></defs><title>Cronos files Dr.Relli</title><path class="cls-1" d="M60.3534.0312.26,34.7435v69.4017l60.093,34.689,60.047-34.689V34.7435Zm42.256,93.83-42.256,24.4056L18.0744,93.8616V45.0037L60.3534,20.598l42.256,24.4057Z"/><path class="cls-2" d="M60.3536,138.8342,120.4,104.1452V34.7435L60.3536.0312v20.59L102.6094,45.027V93.8848L60.3536,118.2672Z"/><path class="cls-3" d="M60.3069.0312.26,34.72v69.4019l60.0465,34.712v-20.59L18.0511,93.8383V44.98L60.3069,20.598Z"/><path class="cls-1" d="M88.3767,85.6488,60.33,101.8422,32.26,85.6488V53.24L60.33,37.0236,88.3767,53.24l-11.6744,6.747L60.33,50.5177,43.9581,59.9868V78.8785L60.33,88.3477l16.3721-9.4692Z"/></svg>