<?xml version="1.0" encoding="UTF-8" standalone="no"?><!DOCTYPE svg PUBLIC "-//W3C//DTD SVG 1.1//EN" "http://www.w3.org/Graphics/SVG/1.1/DTD/svg11.dtd"><svg width="100%" height="100%" viewBox="0 0 2545 1967" version="1.1" xmlns="http://www.w3.org/2000/svg" xmlns:xlink="http://www.w3.org/1999/xlink" xml:space="preserve" xmlns:serif="http://www.serif.com/" style="fill-rule:evenodd;clip-rule:evenodd;stroke-miterlimit:10;"><g id="body"><path d="M1235.88,555.733l505.944,287.052l0,574.102l-505.944,287.052l-505.943,-287.052l-0,-574.102l505.943,-287.052Z" style="fill:#fff;"/><g><path d="M1755.54,1453.44l-0,-644.047l-518.486,-322.025l-518.485,322.025l-0,644.047l518.485,322.021l518.486,-322.021Z" style="fill:none;fill-rule:nonzero;stroke:#9a9a9a;stroke-width:0.16px;"/><path d="M1425.78,1655.61l-707.208,-846.216" style="fill:none;fill-rule:nonzero;stroke:#9a9a9a;stroke-width:0.18px;"/><path d="M1495.08,647.273l257.331,402.513" style="fill:none;fill-rule:nonzero;stroke:#9a9a9a;stroke-width:0.18px;"/><path d="M949.904,665.09l805.633,788.347" style="fill:none;fill-rule:nonzero;stroke:#e76600;stroke-width:1px;"/><path d="M1202.42,579.675l-104.224,474.69" style="fill:none;fill-rule:nonzero;stroke:#9a9a9a;stroke-width:1px;"/><path d="M1031.14,734.62l-89.366,633.761" style="fill:none;fill-rule:nonzero;stroke:#9a9a9a;stroke-width:0.45px;"/><path d="M1495.08,647.273l-776.507,162.117" style="fill:none;fill-rule:nonzero;stroke:#9a9a9a;stroke-width:0.18px;"/><path d="M1121.67,1701.04l622.293,-242.328" style="fill:none;fill-rule:nonzero;stroke:#00bde3;stroke-width:0.18px;"/><path d="M949.904,665.09l-231.338,788.347" style="fill:none;fill-rule:nonzero;stroke:#9a9a9a;stroke-width:0.18px;"/><path d="M1608.8,716.585l-371.751,1058.87" style="fill:none;fill-rule:nonzero;stroke:#9a9a9a;stroke-width:0.18px;"/><path d="M870.669,1511.49l577.887,-817.083l12.417,10.38l-588.251,808.418l-2.053,-1.715Z" style="fill:#e76600;fill-rule:nonzero;"/><path d="M1496.2,647.962l-505.67,972.442l-13.679,-8.353l517.09,-965.47l2.259,1.381Z" style="fill:#e76600;fill-rule:nonzero;"/><path d="M719.217,808.177l1040.25,637.936l-7.863,14.649l-1033.69,-650.165l1.301,-2.42Z" style="fill:#e76600;fill-rule:nonzero;"/><path d="M1754.27,1453.73l-153.158,-735.373l15.376,-3.542l140.322,738.328l-2.54,0.587Z" style="fill:#898989;fill-rule:nonzero;"/><path d="M1752.85,1051.1l-1031.6,410.29l-5.366,-15.903l1036.08,-397.014l0.888,2.627Z" style="fill:#898989;fill-rule:nonzero;"/><path d="M1424.5,1655.84l-195.19,-1167.03l15.495,-2.897l182.252,1169.45l-2.557,0.478Z" style="fill:#898989;fill-rule:nonzero;"/><path d="M983.448,1614.85l759.024,-164.446l2.975,16.61l-761.508,150.58l-0.491,-2.744Z" style="fill:#898989;fill-rule:nonzero;"/><path d="M717.917,1452.23l1033.69,-650.161l7.862,14.649l-1040.26,637.932l-1.297,-2.42Z" style="fill:#e76600;fill-rule:nonzero;"/><path d="M706.515,1111.04l338.873,135.958l-2.457,7.007l-336.822,-141.808l0.406,-1.157Z" style="fill:#898989;fill-rule:nonzero;"/><path d="M1020.31,701.776l118.928,367.435l-6.583,2.436l-113.432,-369.469l1.087,-0.402Z" style="fill:#e76600;fill-rule:nonzero;"/><path d="M950.118,663.71l806.714,137.333l-2.582,16.691l-804.559,-151.265l0.427,-2.759Z" style="fill:#898989;fill-rule:nonzero;"/><path d="M1237.05,1775.46l515.355,-725.675" style="fill:none;fill-rule:nonzero;stroke:#e76600;stroke-width:0.5px;"/><path d="M1298.98,922.825c8.709,3.799 18.635,-0.717 22.166,-10.086c3.532,-9.371 -0.666,-20.046 -9.375,-23.845c-8.712,-3.801 -18.635,0.717 -22.167,10.086c-3.531,9.371 0.665,20.046 9.376,23.845" style="fill:#333;fill-rule:nonzero;"/><path d="M1228.7,1153.61c13.191,5.754 28.225,-1.086 33.573,-15.276c5.349,-14.194 -1.009,-30.363 -14.2,-36.117c-13.195,-5.754 -28.225,1.086 -33.574,15.276c-5.352,14.194 1.006,30.363 14.201,36.117" style="fill:#333;fill-rule:nonzero;"/><path d="M1349.6,1077.78c9.424,4.11 20.159,-0.777 23.98,-10.911c3.821,-10.138 -0.718,-21.69 -10.142,-25.8c-9.424,-4.111 -20.16,0.776 -23.984,10.914c-3.821,10.138 0.722,21.686 10.146,25.797" style="fill:#333;fill-rule:nonzero;"/><path d="M1400.48,1545.35c8.35,3.642 17.863,-0.687 21.249,-9.668c3.385,-8.984 -0.637,-19.217 -8.988,-22.859c-8.349,-3.644 -17.864,0.685 -21.249,9.668c-3.388,8.981 0.639,19.217 8.988,22.859" style="fill:#333;fill-rule:nonzero;"/><path d="M931.347,1383.19c9.424,4.111 20.16,-0.776 23.981,-10.914c3.821,-10.134 -0.718,-21.686 -10.143,-25.797c-9.424,-4.111 -20.159,0.776 -23.98,10.914c-3.824,10.135 0.718,21.687 10.142,25.797" style="fill:#333;fill-rule:nonzero;"/><path d="M1745.85,835.085c13.195,5.754 28.225,-1.086 33.574,-15.276c5.349,-14.194 -1.006,-30.363 -14.2,-36.117c-13.195,-5.754 -28.225,1.086 -33.574,15.276c-5.353,14.194 1.009,30.363 14.2,36.117" style="fill:#333;fill-rule:nonzero;"/><path d="M1543.41,1356.39c13.194,5.754 28.225,-1.086 33.573,-15.276c5.349,-14.194 -1.006,-30.363 -14.2,-36.117c-13.191,-5.755 -28.225,1.086 -33.574,15.276c-5.352,14.194 1.01,30.363 14.201,36.117" style="fill:#333;fill-rule:nonzero;"/><path d="M1472.88,1445.34c3.77,1.644 8.065,-0.31 9.593,-4.366c1.528,-4.052 -0.288,-8.673 -4.058,-10.316c-3.77,-1.647 -8.062,0.31 -9.594,4.362c-1.527,4.056 0.288,8.677 4.059,10.32" style="fill:#333;fill-rule:nonzero;"/><path d="M1140.17,862.201c3.77,1.643 8.062,-0.31 9.593,-4.366c1.528,-4.056 -0.288,-8.673 -4.058,-10.317c-3.77,-1.647 -8.066,0.31 -9.593,4.362c-1.528,4.056 0.288,8.677 4.058,10.321" style="fill:#333;fill-rule:nonzero;"/><path d="M1493.54,1035.65c3.771,1.644 8.063,-0.31 9.594,-4.365c1.528,-4.053 -0.288,-8.673 -4.058,-10.317c-3.771,-1.647 -8.066,0.31 -9.594,4.362c-1.528,4.056 0.288,8.677 4.058,10.32" style="fill:#333;fill-rule:nonzero;"/><path d="M1027.11,756.889c7.537,3.291 16.128,-0.62 19.187,-8.731c3.056,-8.109 -0.576,-17.347 -8.116,-20.637c-7.538,-3.287 -16.128,0.619 -19.187,8.731c-3.056,8.108 0.579,17.35 8.116,20.637" style="fill:#333;fill-rule:nonzero;"/><path d="M1198.06,1394.31c3.771,1.644 8.066,-0.309 9.594,-4.365c1.528,-4.056 -0.288,-8.673 -4.058,-10.317c-3.771,-1.647 -8.063,0.31 -9.594,4.362c-1.528,4.056 0.288,8.677 4.058,10.32" style="fill:#333;fill-rule:nonzero;"/><path d="M1616.11,1337.41c7.537,3.287 16.128,-0.62 19.187,-8.731c3.056,-8.109 -0.579,-17.35 -8.117,-20.637c-7.537,-3.287 -16.128,0.619 -19.187,8.731c-3.055,8.108 0.576,17.346 8.117,20.637" style="fill:#333;fill-rule:nonzero;"/><path d="M1748.52,901.464c9.424,4.11 20.159,-0.777 23.98,-10.915c3.821,-10.134 -0.722,-21.686 -10.142,-25.797c-9.425,-4.11 -20.163,0.777 -23.984,10.915c-3.821,10.134 0.721,21.686 10.146,25.797" style="fill:#333;fill-rule:nonzero;"/><path d="M1524.86,1154.12c7.537,3.291 16.128,-0.619 19.187,-8.728c3.056,-8.111 -0.579,-17.349 -8.116,-20.64c-7.538,-3.287 -16.129,0.62 -19.187,8.728c-3.056,8.112 0.575,17.353 8.116,20.64" style="fill:#333;fill-rule:nonzero;"/><path d="M1578.88,1293.41c5.654,2.467 12.097,-0.467 14.39,-6.549c2.29,-6.082 -0.433,-13.009 -6.087,-15.476c-5.654,-2.467 -12.097,0.462 -14.39,6.544c-2.294,6.083 0.433,13.014 6.087,15.481" style="fill:#333;fill-rule:nonzero;"/><path d="M1096.71,1067.85c9.425,4.111 20.16,-0.776 23.981,-10.911c3.821,-10.138 -0.718,-21.689 -10.143,-25.8c-9.424,-4.111 -20.159,0.776 -23.98,10.914c-3.824,10.138 0.718,21.686 10.142,25.797" style="fill:#333;fill-rule:nonzero;"/><path d="M855.058,987.117c5.654,2.467 12.097,-0.467 14.39,-6.549c2.293,-6.082 -0.434,-13.009 -6.087,-15.476c-5.654,-2.467 -12.097,0.462 -14.391,6.544c-2.293,6.083 0.434,13.014 6.088,15.481" style="fill:#333;fill-rule:nonzero;"/><path d="M711.648,827.744c9.424,4.111 20.159,-0.776 23.98,-10.914c3.821,-10.134 -0.718,-21.686 -10.142,-25.797c-9.424,-4.111 -20.159,0.776 -23.98,10.914c-3.822,10.135 0.718,21.686 10.142,25.797" style="fill:#333;fill-rule:nonzero;"/><path d="M1451.57,1178.25c7.538,3.291 16.128,-0.619 19.187,-8.731c3.056,-8.108 -0.575,-17.346 -8.116,-20.637c-7.537,-3.287 -16.128,0.62 -19.187,8.732c-3.056,8.108 0.579,17.349 8.116,20.636" style="fill:#333;fill-rule:nonzero;"/><path d="M947.672,1319.25c5.654,2.467 12.097,-0.467 14.39,-6.549c2.294,-6.082 -0.433,-13.013 -6.087,-15.476c-5.654,-2.467 -12.097,0.462 -14.39,6.544c-1.619,4.301 -0.732,9.025 1.925,12.297c1.101,1.355 2.506,2.461 4.162,3.184" style="fill:#333;fill-rule:nonzero;"/><path d="M1366.59,1394.99c13.195,5.754 28.225,-1.086 33.574,-15.276c5.349,-14.194 -1.006,-30.363 -14.201,-36.117c-13.194,-5.755 -28.225,1.086 -33.573,15.276c-5.353,14.194 1.009,30.363 14.2,36.117" style="fill:#333;fill-rule:nonzero;"/></g><path d="M1235.88,555.733l505.944,287.052l0,574.102l-505.944,287.052l-505.943,-287.052l-0,-574.102l505.943,-287.052Zm0.663,57.741l455.82,258.61l-0,517.218l-455.82,258.609l-455.82,-258.609l0,-517.218l455.82,-258.61Z" style="fill:#9a9a9a;"/><path d="M1234.86,467.849l576.871,332.783l-0,665.567l-576.871,332.783l-576.87,-332.783l-0,-665.567l576.87,-332.783Zm1.011,87.884l505.944,287.052l0,574.102l-505.944,287.052l-505.943,-287.052l-0,-574.102l505.943,-287.052Z"/></g><g id="mid"><path d="M1870.48,761.342l-636.219,903.681l-636.223,-903.681l636.223,245.207l636.219,-245.207Z" style="fill:#515151;fill-rule:nonzero;"/><path d="M1234.26,1006.55l0.005,-0.003l-0,0.007l284.973,253.676l-284.973,404.774l-0,0.013l-0.005,-0.006l-0.004,0.006l-0,-0.013l-284.974,-404.774l284.974,-253.676l-0,-0.007l0.004,0.003Z" style="fill:#2c2c2c;fill-rule:nonzero;"/><g><path d="M1343.84,1291.4c0.484,-54.509 -44.604,-99.216 -98.801,-99.444c-55.048,-0.227 -99.863,44.877 -99.912,99.308c-0.049,54.704 44.763,99.531 99.369,99.574c54.847,0.042 99.886,-45.185 99.344,-99.438m-228.073,148.875l0,-297.568c1.037,-0.127 2.044,-0.357 3.048,-0.357c43.911,0.022 87.819,0.026 131.724,0.13c13.772,0.032 27.138,2.677 40.231,6.868c24.538,7.855 45.639,21.182 63.313,39.879c13.756,14.558 24.207,31.209 31.17,50.045c3.781,10.234 6.384,20.699 7.979,31.511c1.842,12.463 1.978,24.909 0.588,37.342c-2.2,19.63 -8.126,38.129 -17.781,55.429c-13.239,23.729 -31.598,42.469 -54.886,56.341c-11.027,6.569 -22.801,11.469 -35.192,14.987c-14.252,4.045 -28.765,5.582 -43.505,5.585c-41.358,0.013 -82.712,0.029 -124.07,0.036c-0.767,-0 -1.533,-0.13 -2.619,-0.228" style="fill:#ff7b00;fill-rule:nonzero;"/><path d="M1191.69,1291.71c-0.318,-29.035 23.327,-53.161 52.992,-53.044c29.467,0.117 52.814,23.623 52.797,53.08c-0.019,29.366 -23.69,52.924 -52.962,52.924c-29.594,0.003 -53.226,-24.409 -52.827,-52.96" style="fill:#ff7b00;fill-rule:nonzero;"/></g><path d="M1234.26,1006.55l0.005,-0.003l-0,0.007l284.973,253.676l-284.973,404.774l-0,0.013l-0.005,-0.006l-0.004,0.006l-0,-0.013l-284.974,-404.774l284.974,-253.676l-0,-0.007l0.004,0.003Z" style="fill:none;fill-rule:nonzero;"/><clipPath id="_clip1"><path d="M1234.26,1006.55l0.005,-0.003l-0,0.007l284.973,253.676l-284.973,404.774l-0,0.013l-0.005,-0.006l-0.004,0.006l-0,-0.013l-284.974,-404.774l284.974,-253.676l-0,-0.007l0.004,0.003Z" clip-rule="nonzero"/></clipPath><g clip-path="url(#_clip1)"><path d="M1234.62,1006.82l-291.238,258.658" style="fill:none;stroke:#ff7b00;stroke-width:5px;stroke-linecap:round;stroke-linejoin:round;stroke-miterlimit:1.5;"/><path d="M1226.7,999.769l295.552,263.139" style="fill:none;stroke:#ff7b00;stroke-width:5px;stroke-linecap:round;stroke-linejoin:round;stroke-miterlimit:1.5;"/></g><path d="M1234.26,1006.55l0.005,-0.003l-0,0.007l284.973,253.676l-284.973,404.774l-0,0.013l-0.005,-0.006l-0.004,0.006l-0,-0.013l-284.974,-404.774l284.974,-253.676l-0,-0.007l0.004,0.003Z" style="fill:none;fill-rule:nonzero;stroke:#2c2c2c;stroke-width:1px;stroke-linejoin:round;stroke-miterlimit:2;"/></g><g id="bars"><g><path d="M830.501,761.033l-16.493,0c-27.506,0 -49.805,-22.298 -49.805,-49.804l0,-228.87c0,-27.506 22.299,-49.805 49.805,-49.805l16.493,0c27.506,0 49.805,22.299 49.805,49.805l-0,228.87c-0,27.506 -22.299,49.804 -49.805,49.804" style="fill:#d15d00;"/><path d="M1040.05,639.27l-16.494,-0c-27.506,-0 -49.804,-22.298 -49.804,-49.804l-0,-234.534c-0,-27.505 22.298,-49.804 49.804,-49.804l16.494,0c27.506,0 49.804,22.299 49.804,49.804l-0,234.534c-0,27.506 -22.298,49.804 -49.804,49.804" style="fill:#ff7b00;"/><path d="M1231.39,902.618l-16.894,0c-28.177,0 -51.018,-22.841 -51.018,-51.018l-0,-345.373c-0,-28.176 22.841,-51.018 51.018,-51.018l16.894,0c28.176,0 51.018,22.842 51.018,51.018l-0,345.373c-0,28.177 -22.842,51.018 -51.018,51.018" style="fill:#ff8c00;"/><path d="M1440.13,857.311l-15.288,0c-25.49,0 -46.16,-20.666 -46.16,-46.16l0,-649.586c0,-25.494 20.67,-46.16 46.16,-46.16l15.288,-0c25.494,-0 46.16,20.666 46.16,46.16l-0,649.586c-0,25.494 -20.666,46.16 -46.16,46.16" style="fill:#ff4100;"/><path d="M1659.39,526.001l-14.886,0c-24.82,0 -44.943,-20.122 -44.943,-44.943l-0,-218.768c-0,-24.82 20.123,-44.943 44.943,-44.943l14.886,-0c24.82,-0 44.943,20.123 44.943,44.943l0,218.768c0,24.821 -20.123,44.943 -44.943,44.943" style="fill:#ff3c00;"/></g><g><path d="M1016.56,383.05l-210.525,210.237l19.153,19.179l210.525,-210.236l-19.153,-19.18Z" style="fill:#008055;"/><path d="M1797.01,207.091l-157.219,157.004l19.153,19.179l157.219,-157.004l-19.153,-19.179Z" style="fill:#008055;"/><path d="M1416.38,214.092l-203.427,468.66l24.864,10.792l203.426,-468.659l-24.863,-10.793Z" style="fill:#008055;"/><path d="M1206.74,687.406l-184.723,-287.158l22.796,-14.664l184.723,287.158l-22.796,14.664Z" style="fill:#e61b1b;"/><path d="M1649.06,383.935l-213.246,-149.401l15.924,-22.729l213.246,149.401l-15.924,22.729Z" style="fill:#e61b1b;"/></g><path d="M1813.09,136.452c0,0 -71.136,17.242 -97.161,23.55c-1.937,0.47 -3.477,1.937 -4.039,3.85c-0.562,1.912 -0.061,3.979 1.315,5.422c18.475,19.383 68.973,72.361 68.973,72.361c-0,-0 50.5,52.994 68.975,72.381c1.375,1.443 3.416,2.043 5.353,1.574c1.937,-0.47 3.477,-1.937 4.039,-3.849c7.55,-25.694 28.187,-95.922 28.187,-95.922c0,0 14.942,-50.85 24.049,-81.843c1.416,-4.817 0.154,-10.023 -3.31,-13.657c-3.465,-3.635 -8.604,-5.145 -13.484,-3.962c-31.392,7.61 -82.897,20.095 -82.897,20.095Z" style="fill:#2c2c2c;"/><g><circle cx="1031.8" cy="389.112" r="25.073" style="fill:#2c2c2c;stroke:#515151;stroke-width:0.59px;stroke-linecap:round;stroke-linejoin:round;stroke-miterlimit:1.5;"/><rect x="1193.86" y="700.27" width="59.825" height="39.177" style="fill:#ff8c00;"/><circle cx="821.556" cy="597.211" r="26.883" style="fill:#2c2c2c;stroke:#515151;stroke-width:0.59px;stroke-linecap:round;stroke-linejoin:round;stroke-miterlimit:1.5;"/><ellipse cx="1432.49" cy="215.54" rx="26.579" ry="27.242" style="fill:#2c2c2c;stroke:#515151;stroke-width:0.59px;stroke-linecap:round;stroke-linejoin:round;stroke-miterlimit:1.5;"/><circle cx="1655.14" cy="366.57" r="29.83" style="fill:#2c2c2c;stroke:#515151;stroke-width:0.59px;stroke-linecap:round;stroke-linejoin:round;stroke-miterlimit:1.5;"/><circle cx="1223.64" cy="684.586" r="29.532" style="fill:#2c2c2c;stroke:#515151;stroke-width:0.59px;stroke-linecap:round;stroke-linejoin:round;stroke-miterlimit:1.5;"/></g></g></svg>